<?xml version="1.0" encoding="utf-8"?>
<!-- Generator: Adobe Illustrator 25.4.1, SVG Export Plug-In . SVG Version: 6.00 Build 0)  -->
<svg version="1.1" id="Capa_1" xmlns="http://www.w3.org/2000/svg" xmlns:xlink="http://www.w3.org/1999/xlink" x="0px" y="0px"
	 viewBox="0 0 400 325" style="enable-background:new 0 0 400 325;" xml:space="preserve">
<style type="text/css">
	.st0{fill:url(#SVGID_1_);}
	.st1{fill:#FAC90E;}
	.st2{fill:#F6A51C;}
	.st3{fill:#F6A31D;}
	.st4{fill:#D98819;}
	.st5{fill:#2F4F2C;}
	.st6{fill:#FFFFFF;}
	.st7{fill:#D8D93E;}
</style>
<radialGradient id="SVGID_1_" cx="200" cy="162.5" r="241.7599" gradientUnits="userSpaceOnUse">
	<stop  offset="0" style="stop-color:#FFFFFF"/>
	<stop  offset="1" style="stop-color:#FFED00"/>
</radialGradient>
<rect class="st0" width="400" height="325"/>
<g>
	<path class="st1" d="M227.82,47.19c-5.65,3.95,4.38,46.61-16.03,57.85l-12.78-6.94C198.03,64.39,208.97,53.04,227.82,47.19z"/>
	<path class="st2" d="M250.44,55.46c0,0,8.95,37.04-19.76,52.76l-12.16-7.49C221.71,67.39,247.74,67.08,250.44,55.46z"/>
	<path class="st1" d="M279.81,74.67c0,0-34.7,1.93-46.3,34.91l10.87,9.67C274.1,110.64,267.4,81.37,279.81,74.67z"/>
	<path class="st2" d="M297.39,98.24c-11.93,8.39-2.72,21.89-40.33,37.37l-9.96-14.81C261.42,101.28,275.08,98.24,297.39,98.24z"/>
	<path class="st1" d="M311.98,120.14c-16.4,2.34-1.13,22.98-51.47,24.64l-3.25-8.16C270.41,119.58,287.34,115.88,311.98,120.14z"/>
	<path class="st2" d="M319.18,152.82c-16.84,10.38-35.09,15.06-55.65,10.33l-3.4-17.22C296.81,132.61,301.9,150.81,319.18,152.82z"
		/>
	<path class="st1" d="M320,189.6c-4.28-5.4-46.26,7.15-58.71-12.56l6.17-13.17C301.05,160.89,313.04,171.13,320,189.6z"/>
	<path class="st2" d="M307.13,213.61c0,0-37.04,8.95-52.76-19.76l7.49-12.16C295.2,184.88,295.51,210.9,307.13,213.61z"/>
	<path class="st1" d="M287.92,242.98c0,0-1.93-34.7-34.91-46.3l-9.67,10.87C251.95,237.27,281.21,230.56,287.92,242.98z"/>
	<path class="st2" d="M264.35,260.56c-8.39-11.93-21.89-2.72-37.37-40.33l14.81-9.96C261.3,224.59,264.35,238.25,264.35,260.56z"/>
	<path class="st1" d="M242.44,275.15c-2.34-16.4-22.98-1.13-24.64-51.47l8.16-3.25C243.01,233.58,246.71,250.51,242.44,275.15z"/>
	<path class="st2" d="M209.76,279.54c-10.38-16.84-15.06-32.29-10.33-52.85l17.22-3.4C229.97,259.97,211.78,262.26,209.76,279.54z"
		/>
	<path class="st1" d="M172.17,277.81c5.62-3.99-5.17-43.5,15.17-54.88l12.83,6.86C201.36,263.49,190.98,271.83,172.17,277.81z"/>
	<path class="st2" d="M150.22,269.36c0,0-8.95-37.04,19.76-52.76l12.16,7.49C178.95,257.43,152.93,257.74,150.22,269.36z"/>
	<path class="st1" d="M119.61,251.08c0,0,34.7-1.93,46.3-34.91l-10.87-9.67C125.32,215.11,132.02,244.38,119.61,251.08z"/>
	<path class="st2" d="M102.03,227.51c11.93-8.4,2.72-21.89,40.33-37.37l9.96,14.81C138,224.47,124.33,227.51,102.03,227.51z"/>
	<path class="st1" d="M87.44,205.61c16.4-2.34,1.13-22.98,51.47-24.64l3.25,8.16C129,206.17,112.08,209.87,87.44,205.61z"/>
	<path class="st2" d="M80.24,172.93c16.84-10.38,35.09-15.06,55.65-10.33l3.4,17.22C102.61,193.14,97.52,174.94,80.24,172.93z"/>
	<path class="st1" d="M80,137.34c4.39,5.31,45.48-8.16,58.33,11.29l-5.89,13.3C98.92,165.61,87.35,155.67,80,137.34z"/>
	<path class="st2" d="M92.29,112.14c0,0,37.04-8.95,52.76,19.76l-7.49,12.16C104.22,140.87,103.91,114.85,92.29,112.14z"/>
	<path class="st1" d="M111.5,82.78c0,0,1.93,34.7,34.91,46.3l9.67-10.87C147.47,88.48,118.21,95.19,111.5,82.78z"/>
	<path class="st2" d="M135.07,65.2c8.4,11.93,21.89,2.72,37.37,40.33l-14.81,9.96C138.12,101.16,135.07,87.5,135.07,65.2z"/>
	<path class="st1" d="M156.98,50.6c2.34,16.4,22.98,1.13,24.64,51.47l-8.16,3.25C156.41,92.17,152.71,75.24,156.98,50.6z"/>
	<path class="st2" d="M190.54,45.46c9.93,17.11,14.7,33.48,9.42,53.91l-17.3,2.94C170.31,65.3,188.07,62.68,190.54,45.46z"/>
	<path class="st3" d="M210.09,63.63c-0.89,1.54-1.75,3.09-2.48,4.7c-0.73,1.61-1.36,3.26-1.86,4.95c-1.01,3.38-1.39,6.92-1.25,10.44
		c0.11,3.53,0.69,7.03,1.04,10.58c0.18,1.77,0.28,3.56,0.26,5.34c-0.04,1.78-0.19,3.56-0.55,5.31c0.47-3.53,0.25-7.08-0.19-10.59
		l-0.71-5.28c-0.22-1.77-0.4-3.54-0.47-5.33c-0.06-1.79,0-3.58,0.23-5.36c0.23-1.78,0.62-3.54,1.17-5.24
		c0.55-1.7,1.25-3.35,2.05-4.94C208.16,66.62,209.09,65.09,210.09,63.63z"/>
	<path class="st3" d="M220.64,66.37c-0.17,3.32-0.65,6.64-1.58,9.85l-0.34,1.21c-0.13,0.4-0.28,0.79-0.41,1.18l-0.42,1.18
		l-0.48,1.16c-0.16,0.39-0.31,0.77-0.49,1.15l-0.53,1.13c-0.34,0.76-0.73,1.5-1.1,2.25c-1.51,2.97-3.15,5.85-4.53,8.86
		c-1.39,3-2.53,6.12-3.37,9.34c0.17-0.81,0.35-1.63,0.53-2.44c0.19-0.81,0.44-1.6,0.66-2.41c0.11-0.4,0.25-0.79,0.39-1.19l0.41-1.18
		c0.13-0.4,0.3-0.78,0.45-1.16l0.48-1.16c0.32-0.77,0.69-1.52,1.03-2.28l1.11-2.24c0.76-1.48,1.54-2.95,2.28-4.43
		c1.51-2.95,2.87-5.97,3.86-9.12C219.59,72.93,220.23,69.67,220.64,66.37z"/>
	<path class="st3" d="M217.46,60.51c-2.56,2.99-4.56,6.44-5.79,10.14c-0.61,1.85-1.09,3.75-1.42,5.68c-0.33,1.93-0.54,3.88-0.7,5.83
		c-0.35,3.91-0.46,7.85-0.75,11.78c-0.14,1.96-0.31,3.93-0.53,5.89c-0.24,1.96-0.5,3.91-0.85,5.85c0.21-1.96,0.41-3.91,0.54-5.88
		c0.16-1.96,0.27-3.92,0.35-5.89l0.26-5.9c0.09-1.97,0.19-3.94,0.35-5.9c0.35-3.92,0.92-7.89,2.29-11.62
		c0.68-1.86,1.54-3.66,2.59-5.34C214.86,63.49,216.08,61.93,217.46,60.51z"/>
	<path class="st2" d="M199.81,98.51c-0.22-4.74-0.15-9.5,0.34-14.23c0.51-4.72,1.44-9.43,3.14-13.9c1.68-4.46,4.24-8.65,7.76-11.93
		c1.75-1.64,3.73-3.03,5.84-4.16c2.12-1.12,4.37-1.98,6.68-2.61l0.57-0.15l-0.19,0.56c-0.36,1.04-0.46,2.21-0.54,3.36
		c-0.07,1.15-0.08,2.32-0.07,3.48c0.01,2.33,0.09,4.66,0.13,7c0.09,4.67,0.12,9.36-0.31,14.02c-0.43,4.65-1.25,9.32-3.01,13.69
		c-0.88,2.17-2.02,4.25-3.46,6.1c-1.43,1.85-3.18,3.46-5.16,4.7c1.95-1.29,3.65-2.93,5.03-4.8c1.39-1.87,2.48-3.94,3.31-6.11
		c1.68-4.34,2.44-8.98,2.82-13.61c0.36-4.64,0.34-9.31,0.22-13.97c-0.06-2.33-0.14-4.67-0.16-7.01c-0.01-1.17,0-2.34,0.06-3.52
		c0.08-1.18,0.16-2.36,0.56-3.54l0.37,0.41c-2.27,0.62-4.48,1.45-6.56,2.54c-2.08,1.1-4.02,2.45-5.74,4.05
		c-1.72,1.59-3.23,3.42-4.5,5.4c-1.27,1.98-2.33,4.1-3.2,6.29c-1.73,4.4-2.72,9.06-3.28,13.76c-0.29,2.35-0.47,4.72-0.57,7.08
		C199.79,93.77,199.77,96.14,199.81,98.51z"/>
	<path class="st3" d="M254.75,87.46c-1.91,1.75-3.79,3.53-5.51,5.45c-1.72,1.92-3.24,4-4.46,6.25c-1.24,2.24-2.19,4.64-3.01,7.08
		c-0.81,2.45-1.5,4.94-2.17,7.44c0.44-2.55,0.97-5.09,1.71-7.59c0.73-2.49,1.67-4.94,2.93-7.24c0.3-0.58,0.67-1.12,1-1.68
		c0.16-0.28,0.36-0.54,0.55-0.81l0.56-0.8c0.4-0.51,0.81-1.03,1.22-1.53c0.44-0.49,0.86-0.98,1.31-1.45
		C250.69,90.69,252.69,89.02,254.75,87.46z"/>
	<path class="st3" d="M265.99,92.55c-1.49,2.84-3.26,5.56-5.39,8c-0.55,0.59-1.08,1.2-1.65,1.78l-1.76,1.67l-1.86,1.55l-1.94,1.45
		l-2.01,1.35c-0.68,0.43-1.36,0.86-2.05,1.28l-4.15,2.45c-2.75,1.64-5.48,3.34-7.85,5.51c2.2-2.35,4.88-4.22,7.6-5.93
		c2.72-1.72,5.5-3.32,8.1-5.17c2.62-1.83,5.06-3.91,7.22-6.26C262.4,97.87,264.29,95.27,265.99,92.55z"/>
	<path class="st3" d="M266.72,83.42c-3.27,1.62-6.18,3.87-8.54,6.62c-2.36,2.74-4.25,5.86-6.1,8.99c-1.86,3.13-3.7,6.29-5.74,9.31
		c-1.02,1.52-2.08,3-3.18,4.46c-1.12,1.44-2.26,2.86-3.47,4.23c2.21-2.9,4.29-5.89,6.24-8.95c1.95-3.07,3.76-6.22,5.61-9.37
		c1.87-3.13,3.8-6.26,6.28-8.99c1.23-1.36,2.61-2.59,4.11-3.65C263.43,85.01,265.04,84.11,266.72,83.42z"/>
	<path class="st2" d="M263.64,103.51c1.07-2.18,2.02-4.41,2.86-6.69c0.84-2.28,1.61-4.57,2.37-6.88c0.76-2.3,1.5-4.63,2.44-6.88
		c0.47-1.13,0.99-2.24,1.6-3.31c0.6-1.07,1.33-2.09,2.2-2.98l0.23,0.5c-1.61,0.16-3.24,0.49-4.83,0.86
		c-1.6,0.38-3.18,0.83-4.74,1.35c-3.12,1.04-6.14,2.39-9,4c-1.44,0.79-2.83,1.68-4.19,2.61c-1.36,0.93-2.65,1.95-3.91,3.01
		c-2.51,2.14-4.8,4.54-6.86,7.12l0.75-0.99c0.25-0.33,0.49-0.67,0.76-0.98c0.53-0.64,1.05-1.28,1.62-1.89
		c1.1-1.24,2.29-2.4,3.51-3.52c1.25-1.09,2.53-2.14,3.88-3.12c1.35-0.96,2.73-1.89,4.18-2.71c2.89-1.65,5.93-3.03,9.07-4.11
		c3.15-1.08,6.38-1.89,9.72-2.24l0.8-0.08l-0.57,0.58c-0.83,0.84-1.53,1.81-2.13,2.85c-0.6,1.04-1.11,2.13-1.59,3.24
		c-0.93,2.23-1.73,4.52-2.53,6.81c-0.81,2.29-1.6,4.59-2.53,6.84C265.83,99.16,264.81,101.38,263.64,103.51z"/>
	<path class="st3" d="M271.95,124.38c2.49-1.44,5.18-2.54,7.95-3.34c2.78-0.78,5.65-1.24,8.53-1.45c2.88-0.23,5.78-0.17,8.65,0.03
		c2.88,0.2,5.74,0.58,8.59,1.05l1.4,0.23l-1.36,0.38c-1.05,0.29-2,0.85-2.71,1.68c-0.72,0.82-1.23,1.82-1.7,2.84
		c-0.47,1.03-0.9,2.09-1.4,3.12c-0.49,1.04-1.04,2.05-1.69,3.01c-1.28,1.93-2.95,3.59-4.83,4.92c-1.88,1.34-3.96,2.37-6.09,3.19
		c-2.14,0.82-4.34,1.46-6.57,1.96c-2.23,0.51-4.48,0.9-6.74,1.2c-4.53,0.58-9.08,0.86-13.64,0.95c4.55-0.23,9.1-0.57,13.59-1.25
		c2.25-0.33,4.49-0.75,6.69-1.28c2.21-0.53,4.38-1.19,6.49-2.02c2.1-0.84,4.12-1.88,5.96-3.18c1.83-1.3,3.44-2.92,4.67-4.79
		c0.62-0.93,1.16-1.92,1.64-2.95c0.48-1.02,0.91-2.07,1.38-3.12c0.48-1.04,1-2.1,1.79-3c0.77-0.91,1.86-1.56,3-1.88l0.03,0.61
		c-2.83-0.49-5.67-0.88-8.52-1.1c-2.86-0.22-5.72-0.27-8.58-0.12c-2.86,0.16-5.7,0.56-8.48,1.27
		C277.2,122.03,274.51,123.07,271.95,124.38z"/>
	<path class="st3" d="M259.4,139.74c2.12-1.68,4.2-3.41,6.18-5.24c1.98-1.83,3.84-3.79,5.81-5.66l0.75-0.69
		c0.25-0.23,0.52-0.44,0.78-0.67c0.51-0.45,1.07-0.85,1.62-1.26c0.27-0.21,0.57-0.38,0.86-0.56c0.29-0.18,0.58-0.37,0.88-0.53
		l0.92-0.46l0.46-0.23c0.15-0.07,0.32-0.13,0.48-0.19c2.53-1.05,5.24-1.55,7.93-1.82c-2.66,0.52-5.29,1.17-7.73,2.27
		c-2.46,1.07-4.56,2.76-6.51,4.61c-0.98,0.92-1.94,1.88-2.91,2.82l-1.48,1.4l-1.52,1.36C263.85,136.64,261.66,138.25,259.4,139.74z"
		/>
	<path class="st3" d="M296.13,127.14c-1.91,2.89-4.33,5.48-7.21,7.47c-2.86,2.01-6.09,3.47-9.44,4.44
		c-3.36,0.96-6.84,1.44-10.32,1.54c-3.48,0.1-6.96-0.17-10.37-0.78c3.44,0.37,6.91,0.48,10.35,0.3c3.44-0.2,6.87-0.7,10.17-1.65
		c3.3-0.94,6.47-2.34,9.34-4.24c1.43-0.95,2.79-2.02,4.03-3.21C293.94,129.82,295.07,128.51,296.13,127.14z"/>
	<path class="st3" d="M297.39,123.31c-3.29,0.46-6.47,1.47-9.45,2.88c-2.99,1.4-5.8,3.15-8.6,4.93c-2.81,1.77-5.62,3.55-8.6,5.06
		c-1.49,0.76-3.01,1.44-4.57,2.03c-1.56,0.58-3.15,1.09-4.77,1.47c3.17-1,6.2-2.35,9.11-3.93c2.91-1.58,5.69-3.38,8.49-5.15
		c2.81-1.76,5.67-3.51,8.73-4.84c1.53-0.67,3.11-1.23,4.73-1.65C294.08,123.7,295.73,123.41,297.39,123.31z"/>
	<path class="st4" d="M222.04,90.64c1.02-3.14,2.51-6.14,4.51-8.79c2.01-2.64,4.45-4.93,7.03-7c2.58-2.07,5.27-3.99,7.87-6
		c2.6-2.01,5.16-4.08,7.57-6.32l0.42-0.39l0.06,0.57c0.21,2.07,0.32,4.16,0.33,6.24c0,2.09-0.12,4.17-0.36,6.24
		c-0.24,2.07-0.59,4.13-1.1,6.15c-0.5,2.02-1.12,4.01-1.89,5.94c0.66-1.97,1.23-3.97,1.65-6c0.42-2.03,0.74-4.08,0.93-6.14
		c0.19-2.06,0.26-4.13,0.23-6.2c-0.02-2.07-0.15-4.13-0.37-6.19l0.48,0.18c-2.41,2.26-4.95,4.4-7.59,6.38
		c-2.63,2-5.33,3.9-7.91,5.94c-2.58,2.03-5.05,4.21-7.09,6.79c-0.48,0.67-0.97,1.32-1.44,1.99l-0.65,1.05l-0.32,0.52
		c-0.11,0.17-0.22,0.35-0.31,0.53c-0.37,0.73-0.76,1.46-1.11,2.2L222.04,90.64z"/>
	<path class="st4" d="M281.24,118.52c1.14-1.13,1.99-2.51,2.72-3.93c0.72-1.43,1.31-2.92,1.85-4.43c1.08-3.01,1.93-6.11,3.02-9.13
		l0.12,0.19c-3-0.13-6.01,0.07-8.96,0.57c-2.96,0.48-5.87,1.26-8.7,2.27c-2.83,1.01-5.58,2.22-8.24,3.62
		c-2.66,1.4-5.25,2.94-7.74,4.63c2.46-1.74,5-3.36,7.65-4.79c2.65-1.43,5.4-2.7,8.24-3.72c2.84-1.02,5.76-1.81,8.74-2.31
		c2.98-0.49,6.01-0.68,9.03-0.54l0.19,0.01l-0.06,0.18c-0.55,1.5-1.03,3.03-1.53,4.55c-0.5,1.52-1.01,3.05-1.57,4.55
		c-0.56,1.5-1.18,2.99-1.93,4.41C283.3,116.05,282.41,117.41,281.24,118.52z"/>
	<path class="st4" d="M280.77,142.4c1.46,0,2.92,0.1,4.37,0.3c1.45,0.2,2.88,0.53,4.29,0.92c2.82,0.8,5.52,1.97,8.12,3.3
		c2.61,1.32,5.11,2.84,7.65,4.28c1.27,0.71,2.55,1.41,3.89,1.98c1.33,0.55,2.75,1,4.17,0.9l0.7-0.05l-0.61,0.33
		c-2.9,1.58-5.91,2.94-8.99,4.12c-3.08,1.17-6.24,2.15-9.45,2.91c-3.21,0.76-6.46,1.32-9.74,1.69c-3.28,0.36-6.57,0.53-9.86,0.54
		c3.29-0.06,6.58-0.29,9.84-0.7c3.26-0.4,6.51-0.99,9.7-1.78c3.19-0.79,6.34-1.76,9.41-2.94c3.07-1.18,6.05-2.56,8.95-4.12
		l0.09,0.29c-1.51,0.1-2.96-0.38-4.31-0.94c-1.35-0.58-2.64-1.29-3.91-2.01c-2.54-1.45-5.03-2.97-7.62-4.32
		c-2.58-1.35-5.26-2.53-8.06-3.36c-1.4-0.42-2.82-0.76-4.26-0.99C283.69,142.55,282.23,142.43,280.77,142.4z"/>
	<path class="st3" d="M302.53,172.88c-1.59-0.79-3.19-1.57-4.84-2.2c-1.65-0.63-3.34-1.17-5.05-1.56c-3.43-0.8-6.99-0.97-10.49-0.62
		c-3.51,0.32-6.98,1.11-10.5,1.67c-1.76,0.28-3.53,0.5-5.31,0.58c-1.78,0.07-3.57,0.02-5.33-0.23c3.55,0.26,7.09-0.17,10.56-0.82
		l5.23-1.02c1.75-0.33,3.51-0.61,5.29-0.78c1.78-0.16,3.58-0.21,5.37-0.09c1.79,0.13,3.57,0.41,5.3,0.86
		c1.73,0.44,3.42,1.05,5.06,1.75C299.43,171.13,301.01,171.97,302.53,172.88z"/>
	<path class="st3" d="M300.42,183.57c-3.32,0.03-6.66-0.26-9.93-0.99l-1.22-0.27c-0.4-0.11-0.8-0.23-1.2-0.34l-1.2-0.35l-1.18-0.41
		c-0.39-0.14-0.79-0.27-1.18-0.42l-1.16-0.46c-0.78-0.3-1.54-0.63-2.31-0.96c-3.05-1.34-6.03-2.8-9.11-4
		c-3.08-1.21-6.26-2.16-9.52-2.81c0.82,0.12,1.64,0.25,2.46,0.38c0.82,0.14,1.63,0.35,2.44,0.52c0.41,0.08,0.81,0.21,1.21,0.32
		l1.2,0.34c0.4,0.11,0.79,0.25,1.19,0.38l1.18,0.41c0.79,0.28,1.56,0.59,2.33,0.89l2.3,0.97c1.52,0.67,3.03,1.36,4.55,2.02
		c3.03,1.33,6.13,2.51,9.33,3.31C293.81,182.92,297.1,183.36,300.42,183.57z"/>
	<path class="st3" d="M306.07,180.05c-3.14-2.38-6.7-4.17-10.47-5.18c-1.89-0.5-3.81-0.86-5.76-1.08c-1.94-0.22-3.9-0.31-5.86-0.35
		c-3.92-0.12-7.86,0-11.8-0.04c-1.97-0.03-3.94-0.07-5.91-0.17c-1.97-0.12-3.93-0.26-5.89-0.5c1.97,0.09,3.93,0.18,5.9,0.19
		c1.97,0.04,3.93,0.03,5.9,0l5.9-0.09c1.97-0.03,3.94-0.05,5.91-0.01c3.94,0.12,7.93,0.45,11.74,1.59c1.9,0.57,3.74,1.32,5.48,2.27
		C302.95,177.63,304.58,178.76,306.07,180.05z"/>
	<path class="st2" d="M267.09,164.69c4.72-0.5,9.48-0.71,14.23-0.51c4.75,0.22,9.5,0.88,14.06,2.3c4.55,1.41,8.89,3.72,12.37,7.04
		c1.74,1.65,3.25,3.54,4.5,5.59c1.25,2.05,2.24,4.25,3,6.51l0.19,0.56l-0.57-0.16c-1.06-0.3-2.24-0.33-3.39-0.34
		c-1.16,0-2.32,0.06-3.48,0.13c-2.32,0.15-4.65,0.36-6.98,0.55c-4.66,0.37-9.33,0.67-14.02,0.52c-4.67-0.15-9.38-0.69-13.84-2.19
		c-2.22-0.75-4.36-1.77-6.29-3.09c-1.94-1.32-3.64-2.97-5-4.88c1.41,1.86,3.14,3.46,5.09,4.74c1.95,1.28,4.08,2.24,6.3,2.94
		c4.43,1.42,9.11,1.9,13.76,2c4.66,0.08,9.31-0.21,13.96-0.61c2.32-0.19,4.65-0.42,6.98-0.58c1.17-0.08,2.34-0.14,3.52-0.15
		c1.18,0.01,2.37,0.02,3.56,0.35l-0.38,0.4c-0.75-2.23-1.71-4.39-2.93-6.4c-1.22-2.01-2.68-3.86-4.38-5.49
		c-1.69-1.62-3.61-3.02-5.66-4.17c-2.05-1.15-4.23-2.08-6.47-2.81c-4.49-1.47-9.21-2.17-13.93-2.46c-2.36-0.15-4.73-0.19-7.11-0.15
		C271.83,164.39,269.46,164.51,267.09,164.69z"/>
	<path class="st3" d="M275.13,217.92c-1.75-1.91-3.53-3.79-5.45-5.51c-1.92-1.72-4-3.24-6.25-4.46c-2.24-1.24-4.64-2.19-7.08-3.01
		c-2.45-0.81-4.94-1.5-7.44-2.17c2.55,0.44,5.09,0.97,7.59,1.71c2.49,0.73,4.94,1.67,7.24,2.93c0.58,0.3,1.12,0.67,1.68,1
		c0.28,0.16,0.54,0.36,0.81,0.55l0.8,0.56c0.51,0.4,1.03,0.81,1.53,1.22c0.49,0.44,0.98,0.86,1.45,1.31
		C271.89,213.86,273.56,215.85,275.13,217.92z"/>
	<path class="st3" d="M270.04,229.16c-2.84-1.49-5.56-3.26-8-5.39c-0.59-0.55-1.2-1.08-1.78-1.65l-1.67-1.76l-1.55-1.86l-1.45-1.94
		l-1.35-2.01c-0.43-0.68-0.86-1.36-1.28-2.05l-2.45-4.15c-1.64-2.75-3.34-5.48-5.51-7.85c2.35,2.2,4.22,4.88,5.93,7.6
		c1.72,2.72,3.32,5.5,5.17,8.1c1.83,2.62,3.91,5.06,6.26,7.22C264.72,225.57,267.31,227.45,270.04,229.16z"/>
	<path class="st3" d="M279.17,229.89c-1.62-3.27-3.87-6.18-6.62-8.54c-2.74-2.36-5.86-4.25-8.99-6.1c-3.13-1.86-6.29-3.7-9.31-5.74
		c-1.52-1.02-3-2.08-4.46-3.18c-1.44-1.12-2.86-2.26-4.23-3.47c2.9,2.21,5.89,4.29,8.95,6.24c3.07,1.95,6.22,3.76,9.37,5.61
		c3.13,1.87,6.26,3.8,8.99,6.28c1.36,1.23,2.59,2.61,3.65,4.11C277.58,226.6,278.47,228.2,279.17,229.89z"/>
	<path class="st2" d="M259.08,226.81c2.18,1.07,4.41,2.02,6.69,2.86c2.28,0.84,4.57,1.61,6.88,2.37c2.3,0.76,4.63,1.5,6.88,2.44
		c1.13,0.47,2.24,0.99,3.31,1.6c1.07,0.6,2.09,1.33,2.98,2.2l-0.5,0.23c-0.16-1.61-0.48-3.24-0.86-4.83
		c-0.38-1.6-0.83-3.18-1.35-4.74c-1.04-3.12-2.39-6.14-4-9c-0.79-1.44-1.68-2.83-2.61-4.19c-0.93-1.36-1.95-2.65-3.01-3.91
		c-2.14-2.51-4.54-4.8-7.12-6.86l0.99,0.75c0.33,0.25,0.67,0.49,0.98,0.76c0.64,0.53,1.28,1.05,1.89,1.62
		c1.24,1.1,2.4,2.29,3.52,3.51c1.09,1.25,2.14,2.53,3.12,3.88c0.96,1.35,1.89,2.73,2.71,4.18c1.65,2.89,3.03,5.93,4.11,9.07
		c1.08,3.15,1.89,6.38,2.24,9.72l0.08,0.8l-0.58-0.57c-0.84-0.83-1.81-1.53-2.85-2.13c-1.04-0.6-2.13-1.11-3.24-1.59
		c-2.23-0.93-4.52-1.73-6.81-2.53c-2.29-0.81-4.59-1.6-6.84-2.53C263.42,228.99,261.2,227.98,259.08,226.81z"/>
	<path class="st3" d="M238.21,235.12c1.44,2.49,2.54,5.18,3.34,7.95c0.78,2.78,1.24,5.65,1.45,8.53c0.23,2.88,0.17,5.78-0.03,8.65
		c-0.2,2.88-0.58,5.74-1.05,8.59l-0.23,1.4l-0.38-1.36c-0.29-1.05-0.85-2-1.68-2.71c-0.82-0.72-1.82-1.23-2.84-1.7
		c-1.03-0.47-2.09-0.9-3.12-1.4c-1.04-0.49-2.05-1.04-3.01-1.69c-1.93-1.28-3.59-2.95-4.92-4.83c-1.34-1.88-2.37-3.96-3.19-6.09
		c-0.82-2.14-1.46-4.34-1.96-6.57c-0.51-2.23-0.9-4.48-1.2-6.74c-0.58-4.53-0.86-9.08-0.95-13.64c0.23,4.55,0.57,9.1,1.25,13.59
		c0.33,2.25,0.75,4.49,1.28,6.69c0.53,2.21,1.19,4.38,2.02,6.49c0.84,2.1,1.88,4.12,3.18,5.96c1.3,1.83,2.92,3.44,4.79,4.67
		c0.93,0.62,1.92,1.16,2.95,1.64c1.02,0.48,2.07,0.91,3.12,1.38c1.04,0.48,2.1,1,3,1.79c0.91,0.77,1.56,1.86,1.87,3l-0.61,0.03
		c0.49-2.83,0.88-5.67,1.1-8.52c0.22-2.86,0.27-5.72,0.12-8.58c-0.16-2.86-0.56-5.7-1.27-8.48
		C240.56,240.37,239.52,237.68,238.21,235.12z"/>
	<path class="st3" d="M222.85,222.56c1.68,2.12,3.41,4.2,5.24,6.18c1.83,1.98,3.79,3.84,5.66,5.81l0.69,0.75
		c0.23,0.25,0.44,0.52,0.67,0.78c0.45,0.51,0.85,1.07,1.26,1.62c0.21,0.27,0.38,0.57,0.56,0.86c0.18,0.29,0.37,0.58,0.53,0.88
		l0.46,0.92l0.23,0.46c0.07,0.16,0.13,0.32,0.19,0.48c1.05,2.54,1.55,5.24,1.82,7.93c-0.52-2.66-1.17-5.29-2.27-7.73
		c-1.07-2.46-2.76-4.56-4.61-6.51c-0.92-0.98-1.88-1.94-2.82-2.91l-1.4-1.48l-1.36-1.52C225.94,227.02,224.33,224.83,222.85,222.56z
		"/>
	<path class="st3" d="M235.44,259.3c-2.89-1.91-5.48-4.33-7.47-7.21c-2.01-2.86-3.47-6.09-4.44-9.44
		c-0.96-3.36-1.44-6.84-1.54-10.32c-0.1-3.48,0.17-6.96,0.78-10.37c-0.37,3.44-0.48,6.91-0.3,10.35c0.2,3.44,0.7,6.87,1.65,10.17
		c0.94,3.3,2.34,6.47,4.24,9.34c0.95,1.43,2.02,2.79,3.21,4.03C232.76,257.11,234.07,258.24,235.44,259.3z"/>
	<path class="st3" d="M239.27,260.56c-0.46-3.29-1.47-6.47-2.88-9.45c-1.4-2.99-3.15-5.8-4.93-8.6c-1.77-2.81-3.55-5.62-5.06-8.6
		c-0.76-1.49-1.44-3.01-2.03-4.57c-0.58-1.56-1.09-3.15-1.47-4.77c1,3.17,2.35,6.2,3.93,9.11c1.58,2.91,3.38,5.69,5.15,8.49
		c1.76,2.81,3.51,5.67,4.84,8.73c0.67,1.53,1.23,3.11,1.65,4.73C238.89,257.25,239.17,258.9,239.27,260.56z"/>
	<path class="st4" d="M271.95,185.21c3.14,1.02,6.14,2.51,8.79,4.51c2.64,2.01,4.93,4.45,7,7.03c2.07,2.58,3.99,5.27,6,7.87
		c2.01,2.6,4.08,5.16,6.32,7.57l0.39,0.42l-0.57,0.06c-2.07,0.21-4.16,0.32-6.24,0.33c-2.09,0-4.17-0.12-6.24-0.36
		c-2.07-0.24-4.13-0.59-6.15-1.1c-2.02-0.5-4.01-1.12-5.94-1.89c1.97,0.66,3.97,1.23,6,1.65c2.03,0.42,4.08,0.74,6.14,0.93
		c2.06,0.19,4.13,0.26,6.2,0.23c2.07-0.02,4.13-0.15,6.19-0.37l-0.18,0.48c-2.26-2.41-4.4-4.95-6.38-7.59
		c-2-2.63-3.9-5.33-5.94-7.91c-2.03-2.58-4.21-5.05-6.79-7.09c-0.67-0.48-1.32-0.97-1.99-1.44l-1.05-0.65l-0.52-0.32
		c-0.17-0.11-0.35-0.22-0.53-0.31c-0.73-0.37-1.46-0.76-2.2-1.11L271.95,185.21z"/>
	<path class="st4" d="M244.06,244.41c1.13,1.14,2.51,1.99,3.93,2.72c1.43,0.72,2.92,1.3,4.43,1.85c3.01,1.08,6.11,1.93,9.13,3.02
		l-0.19,0.12c0.13-3-0.07-6.01-0.57-8.96c-0.48-2.96-1.26-5.87-2.27-8.7c-1.01-2.83-2.22-5.58-3.62-8.24
		c-1.4-2.66-2.94-5.25-4.63-7.74c1.74,2.46,3.36,5,4.79,7.65c1.43,2.65,2.7,5.4,3.72,8.24c1.02,2.84,1.81,5.76,2.31,8.74
		c0.49,2.98,0.68,6.01,0.54,9.03l-0.01,0.19l-0.18-0.06c-1.5-0.55-3.03-1.03-4.55-1.53c-1.52-0.5-3.04-1.01-4.55-1.57
		c-1.5-0.56-2.99-1.18-4.41-1.93C246.53,246.46,245.17,245.57,244.06,244.41z"/>
	<path class="st4" d="M220.18,243.94c0,1.37-0.08,2.74-0.25,4.1c-0.19,1.36-0.46,2.7-0.82,4.03c-0.73,2.65-1.82,5.18-3.09,7.61
		c-1.27,2.43-2.76,4.74-4.17,7.08c-0.7,1.17-1.37,2.36-1.92,3.6c-0.26,0.63-0.5,1.26-0.65,1.92c-0.15,0.65-0.22,1.32-0.17,1.99
		l0.05,0.7l-0.34-0.62c-1.5-2.75-2.89-5.57-4.14-8.44c-1.24-2.88-2.34-5.83-3.2-8.84c-0.86-3.02-1.51-6.09-1.93-9.2
		c-0.41-3.11-0.6-6.24-0.61-9.37c0.12,6.26,0.99,12.51,2.78,18.5c0.89,3,1.97,5.93,3.23,8.8c1.25,2.87,2.66,5.66,4.14,8.42
		l-0.28,0.08c-0.05-0.7,0.03-1.4,0.18-2.08c0.16-0.68,0.41-1.33,0.67-1.96c0.56-1.26,1.24-2.46,1.95-3.63
		c1.42-2.34,2.91-4.63,4.2-7.04c1.29-2.4,2.4-4.91,3.16-7.54c0.38-1.31,0.67-2.65,0.88-4C220.06,246.67,220.16,245.31,220.18,243.94
		z"/>
	<path class="st3" d="M189.31,264.33c0.88-1.55,1.73-3.1,2.45-4.72c0.72-1.62,1.34-3.27,1.83-4.96c0.98-3.39,1.34-6.93,1.18-10.44
		c-0.13-3.53-0.74-7.03-1.11-10.57c-0.19-1.77-0.31-3.55-0.29-5.34c0.03-1.78,0.17-3.57,0.52-5.31c-0.45,3.53-0.2,7.08,0.26,10.59
		l0.74,5.27c0.23,1.76,0.43,3.54,0.5,5.33c0.07,1.79,0.02,3.58-0.2,5.36c-0.22,1.78-0.6,3.54-1.14,5.24
		c-0.54,1.71-1.23,3.36-2.02,4.96C191.22,261.33,190.3,262.85,189.31,264.33z"/>
	<path class="st3" d="M178.74,261.65c0.15-3.32,0.61-6.64,1.51-9.86l0.34-1.21c0.13-0.4,0.27-0.79,0.41-1.18l0.41-1.18l0.47-1.16
		c0.16-0.39,0.31-0.78,0.48-1.16l0.52-1.14c0.34-0.76,0.72-1.51,1.08-2.25c1.5-2.98,3.11-5.87,4.48-8.89
		c1.37-3.01,2.49-6.14,3.31-9.36c-0.16,0.81-0.34,1.63-0.51,2.44c-0.19,0.81-0.43,1.61-0.65,2.41c-0.1,0.4-0.25,0.79-0.38,1.19
		l-0.41,1.18c-0.13,0.4-0.29,0.78-0.45,1.17l-0.47,1.16c-0.32,0.77-0.68,1.52-1.02,2.28l-1.09,2.25c-0.75,1.48-1.52,2.96-2.26,4.44
		c-1.49,2.96-2.83,5.98-3.8,9.14C179.75,255.09,179.13,258.35,178.74,261.65z"/>
	<path class="st3" d="M182.26,265.64c1.2-1.46,2.33-2.98,3.27-4.61c0.96-1.62,1.74-3.34,2.35-5.11c1.24-3.55,1.74-7.3,1.99-11.06
		c0.14-1.88,0.22-3.77,0.3-5.65c0.09-1.89,0.16-3.78,0.28-5.67c0.11-1.89,0.26-3.78,0.47-5.66c0.22-1.88,0.46-3.76,0.79-5.62
		c-0.4,3.76-0.63,7.53-0.77,11.31c-0.14,3.78-0.19,7.56-0.44,11.35c-0.14,1.89-0.34,3.79-0.67,5.66c-0.34,1.87-0.82,3.73-1.49,5.52
		c-0.66,1.79-1.52,3.5-2.55,5.1C184.74,262.78,183.56,264.27,182.26,265.64z"/>
	<path class="st2" d="M199.37,229.38c0.24,4.65,0.22,9.32-0.21,13.97c-0.45,4.64-1.32,9.27-2.97,13.66
		c-1.63,4.38-4.18,8.5-7.7,11.64c-1.75,1.58-3.72,2.9-5.82,3.97c-2.1,1.07-4.31,1.89-6.57,2.52l-0.57,0.16l0.19-0.56
		c0.35-1.02,0.44-2.16,0.51-3.29c0.06-1.13,0.06-2.27,0.04-3.4c-0.04-2.28-0.14-4.56-0.21-6.84c-0.14-4.57-0.22-9.15,0.17-13.72
		c0.39-4.56,1.18-9.13,2.91-13.39c0.87-2.12,2-4.15,3.42-5.95c1.41-1.81,3.13-3.37,5.06-4.59c-1.89,1.28-3.56,2.88-4.93,4.69
		c-1.37,1.82-2.44,3.85-3.26,5.96c-1.66,4.24-2.39,8.79-2.72,13.32c-0.31,4.54-0.25,9.11-0.08,13.67c0.08,2.28,0.19,4.56,0.24,6.85
		c0.02,1.14,0.03,2.29-0.03,3.44c-0.07,1.15-0.15,2.31-0.53,3.46l-0.38-0.4c2.23-0.62,4.41-1.41,6.46-2.45
		c2.06-1.04,3.99-2.32,5.71-3.86c1.72-1.53,3.23-3.3,4.49-5.23c1.26-1.93,2.3-4.01,3.14-6.16c1.68-4.32,2.6-8.91,3.11-13.52
		C199.38,238.69,199.47,234.03,199.37,229.38z"/>
	<path class="st3" d="M144.67,238.29c1.91-1.75,3.79-3.53,5.51-5.45c1.72-1.92,3.24-4,4.46-6.25c1.24-2.24,2.19-4.64,3.01-7.08
		c0.81-2.45,1.5-4.94,2.17-7.44c-0.44,2.55-0.97,5.09-1.71,7.59c-0.73,2.49-1.67,4.94-2.93,7.24c-0.3,0.58-0.67,1.12-1,1.68
		c-0.16,0.28-0.36,0.54-0.55,0.81l-0.56,0.8c-0.4,0.51-0.81,1.03-1.22,1.53c-0.44,0.49-0.86,0.98-1.31,1.45
		C148.73,235.06,146.73,236.73,144.67,238.29z"/>
	<path class="st3" d="M133.43,233.21c1.49-2.84,3.26-5.56,5.39-8c0.55-0.59,1.08-1.2,1.65-1.78l1.76-1.67l1.86-1.55l1.94-1.45
		l2.01-1.35c0.68-0.43,1.36-0.86,2.05-1.28l4.15-2.45c2.75-1.64,5.48-3.34,7.85-5.51c-2.2,2.35-4.88,4.22-7.6,5.93
		c-2.72,1.72-5.5,3.32-8.1,5.17c-2.62,1.83-5.06,3.91-7.22,6.26C137.02,227.88,135.13,230.48,133.43,233.21z"/>
	<path class="st3" d="M132.7,242.33c3.27-1.62,6.18-3.87,8.54-6.62c2.36-2.74,4.25-5.86,6.1-8.99c1.86-3.13,3.7-6.29,5.74-9.31
		c1.02-1.52,2.08-3,3.18-4.46c1.12-1.44,2.26-2.86,3.47-4.23c-2.21,2.9-4.29,5.89-6.24,8.95c-1.95,3.07-3.76,6.22-5.61,9.37
		c-1.87,3.13-3.8,6.26-6.28,8.99c-1.23,1.36-2.61,2.59-4.11,3.65C135.99,240.74,134.38,241.64,132.7,242.33z"/>
	<path class="st2" d="M135.78,222.24c-1.07,2.18-2.02,4.41-2.86,6.69c-0.84,2.28-1.61,4.57-2.37,6.88c-0.76,2.3-1.5,4.63-2.44,6.88
		c-0.47,1.13-0.99,2.24-1.6,3.31c-0.6,1.07-1.33,2.09-2.2,2.98l-0.23-0.5c1.61-0.16,3.24-0.49,4.83-0.86
		c1.6-0.38,3.18-0.83,4.74-1.35c3.12-1.04,6.14-2.39,9-4c1.44-0.79,2.83-1.68,4.19-2.61c1.36-0.93,2.65-1.95,3.91-3.01
		c2.51-2.14,4.8-4.54,6.86-7.12l-0.75,0.99c-0.25,0.33-0.49,0.67-0.76,0.98c-0.53,0.64-1.05,1.28-1.62,1.89
		c-1.1,1.24-2.29,2.4-3.51,3.52c-1.25,1.09-2.53,2.14-3.88,3.11c-1.35,0.96-2.73,1.89-4.18,2.71c-2.89,1.65-5.93,3.03-9.07,4.11
		c-3.15,1.08-6.38,1.89-9.72,2.24l-0.8,0.08l0.57-0.58c0.83-0.84,1.53-1.81,2.13-2.85c0.6-1.04,1.11-2.13,1.59-3.24
		c0.93-2.23,1.73-4.52,2.53-6.81c0.81-2.29,1.6-4.59,2.53-6.84C133.59,226.59,134.6,224.37,135.78,222.24z"/>
	<path class="st3" d="M127.46,201.37c-2.49,1.44-5.18,2.54-7.95,3.34c-2.78,0.78-5.65,1.24-8.53,1.45
		c-2.88,0.23-5.78,0.17-8.65-0.03c-2.88-0.2-5.74-0.58-8.59-1.05l-1.4-0.23l1.36-0.38c1.05-0.29,2-0.85,2.71-1.68
		c0.72-0.82,1.23-1.82,1.7-2.84c0.47-1.03,0.9-2.09,1.4-3.12c0.49-1.04,1.04-2.05,1.69-3.01c1.28-1.93,2.95-3.59,4.83-4.92
		c1.88-1.34,3.96-2.37,6.09-3.19c2.14-0.82,4.34-1.46,6.57-1.96c2.23-0.51,4.48-0.9,6.74-1.2c4.53-0.58,9.08-0.86,13.64-0.95
		c-4.55,0.23-9.1,0.57-13.59,1.25c-2.25,0.33-4.49,0.75-6.69,1.28c-2.21,0.53-4.38,1.19-6.49,2.02c-2.1,0.84-4.12,1.88-5.96,3.18
		c-1.83,1.3-3.44,2.92-4.67,4.79c-0.62,0.93-1.16,1.92-1.64,2.95c-0.48,1.02-0.91,2.07-1.38,3.12c-0.48,1.04-1,2.1-1.79,3
		c-0.77,0.91-1.86,1.56-3.01,1.88l-0.03-0.61c2.83,0.49,5.67,0.88,8.52,1.1c2.86,0.23,5.72,0.27,8.58,0.12
		c2.86-0.16,5.7-0.56,8.48-1.27C122.21,203.73,124.91,202.69,127.46,201.37z"/>
	<path class="st3" d="M140.02,186.01c-2.12,1.68-4.2,3.41-6.18,5.24c-1.98,1.83-3.84,3.79-5.81,5.66l-0.75,0.69
		c-0.25,0.23-0.52,0.44-0.78,0.67c-0.51,0.45-1.07,0.85-1.62,1.26c-0.27,0.21-0.57,0.38-0.86,0.56c-0.29,0.18-0.58,0.37-0.88,0.53
		l-0.92,0.46l-0.46,0.23c-0.16,0.07-0.32,0.13-0.48,0.19c-2.54,1.05-5.24,1.55-7.93,1.82c2.66-0.52,5.29-1.17,7.73-2.27
		c2.46-1.07,4.56-2.76,6.51-4.61c0.98-0.92,1.94-1.88,2.91-2.82l1.48-1.4l1.52-1.36C135.57,189.11,137.76,187.5,140.02,186.01z"/>
	<path class="st3" d="M103.28,198.61c1.91-2.89,4.33-5.48,7.21-7.47c2.86-2.01,6.09-3.47,9.44-4.44c3.36-0.96,6.84-1.44,10.32-1.54
		c3.48-0.1,6.96,0.17,10.37,0.78c-3.44-0.37-6.91-0.48-10.35-0.3c-3.44,0.2-6.87,0.7-10.17,1.65c-3.3,0.94-6.47,2.34-9.34,4.24
		c-1.43,0.95-2.79,2.02-4.03,3.21C105.48,195.93,104.34,197.24,103.28,198.61z"/>
	<path class="st3" d="M102.03,202.44c3.29-0.46,6.47-1.47,9.45-2.88c2.99-1.4,5.8-3.15,8.6-4.93c2.81-1.77,5.62-3.55,8.6-5.06
		c1.49-0.76,3.01-1.44,4.57-2.03c1.56-0.58,3.15-1.09,4.77-1.47c-3.17,1-6.2,2.35-9.11,3.93c-2.91,1.58-5.69,3.38-8.49,5.15
		c-2.81,1.76-5.67,3.51-8.73,4.84c-1.53,0.67-3.11,1.23-4.73,1.65C105.34,202.05,103.69,202.34,102.03,202.44z"/>
	<path class="st4" d="M178.62,234.18c-1.02,3.13-2.51,6.14-4.51,8.79c-2.01,2.64-4.45,4.93-7.03,7c-2.58,2.07-5.27,3.99-7.87,6
		c-2.6,2.01-5.16,4.08-7.57,6.32l-0.42,0.39l-0.06-0.57c-0.21-2.07-0.32-4.16-0.33-6.24c0-2.09,0.12-4.17,0.36-6.24
		c0.24-2.07,0.59-4.13,1.1-6.15c0.5-2.02,1.12-4.01,1.89-5.94c-0.66,1.97-1.23,3.97-1.65,6c-0.42,2.03-0.74,4.08-0.93,6.14
		c-0.19,2.06-0.26,4.13-0.23,6.2c0.02,2.07,0.15,4.13,0.37,6.19l-0.48-0.18c2.41-2.26,4.95-4.4,7.59-6.38c2.63-2,5.33-3.9,7.91-5.94
		c2.58-2.03,5.05-4.21,7.09-6.79c0.48-0.67,0.97-1.32,1.44-1.99l0.65-1.05l0.32-0.52c0.11-0.17,0.22-0.35,0.31-0.53
		c0.37-0.73,0.76-1.46,1.11-2.2L178.62,234.18z"/>
	<path class="st4" d="M118.18,207.23c-1.14,1.13-1.99,2.51-2.72,3.93c-0.72,1.43-1.3,2.92-1.85,4.42c-1.08,3.01-1.93,6.11-3.02,9.13
		l-0.12-0.19c3,0.13,6.01-0.07,8.96-0.57c2.96-0.48,5.87-1.26,8.7-2.27c2.83-1.01,5.58-2.22,8.24-3.62c2.66-1.4,5.25-2.94,7.74-4.63
		c-2.46,1.74-5,3.36-7.66,4.79c-2.65,1.43-5.4,2.7-8.24,3.72c-2.84,1.02-5.76,1.81-8.74,2.31c-2.98,0.49-6.01,0.68-9.03,0.54
		l-0.19-0.01l0.06-0.18c0.55-1.5,1.03-3.03,1.53-4.55c0.5-1.52,1.01-3.05,1.57-4.55c0.56-1.5,1.18-2.99,1.93-4.41
		C116.12,209.7,117.01,208.34,118.18,207.23z"/>
	<path class="st4" d="M118.64,183.35c-1.46,0-2.92-0.1-4.37-0.3c-1.45-0.2-2.88-0.53-4.29-0.92c-2.82-0.8-5.52-1.97-8.12-3.3
		c-2.61-1.32-5.11-2.84-7.65-4.28c-1.27-0.71-2.55-1.41-3.89-1.98c-1.33-0.55-2.75-1-4.17-0.9l-0.7,0.05l0.61-0.33
		c2.9-1.58,5.91-2.94,8.99-4.12c3.08-1.17,6.24-2.15,9.45-2.91c3.21-0.76,6.46-1.32,9.74-1.69c3.28-0.36,6.57-0.53,9.86-0.54
		c-3.29,0.06-6.58,0.29-9.84,0.7c-3.26,0.4-6.51,0.99-9.7,1.78c-3.19,0.79-6.34,1.76-9.41,2.94c-3.07,1.18-6.05,2.56-8.95,4.12
		l-0.09-0.29c1.51-0.1,2.96,0.38,4.31,0.94c1.35,0.58,2.64,1.29,3.91,2.01c2.54,1.45,5.03,2.97,7.62,4.32
		c2.58,1.35,5.26,2.53,8.06,3.36c1.4,0.42,2.82,0.76,4.26,0.99C115.73,183.2,117.18,183.33,118.64,183.35z"/>
	<path class="st3" d="M97.19,153.65c1.61,0.76,3.22,1.5,4.89,2.1c1.66,0.6,3.36,1.1,5.09,1.46c3.45,0.73,7.01,0.83,10.5,0.4
		c3.51-0.39,6.95-1.26,10.46-1.88c1.75-0.32,3.52-0.57,5.3-0.69c1.78-0.1,3.57-0.09,5.33,0.12c-3.56-0.18-7.08,0.32-10.54,1.04
		l-5.2,1.13c-1.74,0.36-3.5,0.68-5.28,0.89c-1.78,0.2-3.57,0.29-5.36,0.2c-1.79-0.09-3.57-0.33-5.31-0.75
		c-1.74-0.41-3.44-0.98-5.09-1.65C100.33,155.33,98.73,154.53,97.19,153.65z"/>
	<path class="st3" d="M99.08,142.91c3.32-0.1,6.67,0.12,9.94,0.78l1.23,0.25c0.41,0.1,0.81,0.21,1.21,0.32l1.21,0.32l1.19,0.38
		c0.4,0.13,0.8,0.25,1.19,0.39l1.17,0.44c0.79,0.28,1.55,0.6,2.33,0.91c3.08,1.27,6.09,2.67,9.19,3.81c3.1,1.14,6.3,2.03,9.58,2.61
		c-0.82-0.1-1.65-0.21-2.47-0.33c-0.82-0.13-1.63-0.31-2.45-0.47c-0.41-0.07-0.81-0.19-1.21-0.29l-1.21-0.32
		c-0.41-0.1-0.8-0.23-1.2-0.36l-1.19-0.38c-0.79-0.26-1.57-0.56-2.35-0.85l-2.32-0.92c-1.54-0.64-3.06-1.3-4.59-1.92
		c-3.06-1.27-6.18-2.38-9.4-3.11C105.7,143.43,102.4,143.06,99.08,142.91z"/>
	<path class="st3" d="M93.5,146.56c3.19,2.31,6.78,4.03,10.58,4.96c1.9,0.46,3.83,0.79,5.78,0.96c1.95,0.18,3.91,0.23,5.87,0.23
		c3.92,0.03,7.86-0.17,11.8-0.2c1.97-0.02,3.94-0.01,5.91,0.05c1.97,0.08,3.94,0.18,5.9,0.37c-1.97-0.05-3.93-0.09-5.9-0.07
		c-1.97,0-3.93,0.05-5.9,0.12l-5.9,0.21c-1.97,0.07-3.94,0.13-5.91,0.13c-3.94-0.04-7.93-0.28-11.77-1.35
		c-1.91-0.53-3.77-1.25-5.53-2.15C96.67,148.9,95.02,147.81,93.5,146.56z"/>
	<path class="st2" d="M132.79,161.1c-4.71,0.6-9.46,0.91-14.21,0.81c-4.75-0.12-9.52-0.68-14.11-2.01
		c-4.58-1.32-8.97-3.53-12.51-6.78c-1.78-1.61-3.32-3.47-4.61-5.49c-1.29-2.02-2.33-4.2-3.14-6.45l-0.2-0.55l0.57,0.15
		c1.07,0.28,2.24,0.28,3.39,0.27c1.16-0.03,2.32-0.11,3.48-0.21c2.32-0.2,4.64-0.46,6.96-0.69c4.65-0.47,9.32-0.87,14-0.81
		c4.67,0.06,9.39,0.5,13.88,1.9c2.24,0.71,4.4,1.68,6.36,2.96c1.96,1.28,3.7,2.9,5.1,4.77c-1.45-1.84-3.22-3.4-5.19-4.63
		c-1.97-1.24-4.13-2.15-6.36-2.81c-4.46-1.33-9.15-1.71-13.8-1.71c-4.66,0.02-9.31,0.4-13.94,0.9c-2.32,0.24-4.64,0.51-6.97,0.72
		c-1.17,0.1-2.34,0.19-3.51,0.22c-1.18,0.02-2.37,0.03-3.57-0.27l0.37-0.4c0.8,2.21,1.8,4.35,3.06,6.34
		c1.26,1.98,2.76,3.81,4.5,5.39c1.73,1.59,3.67,2.95,5.74,4.06c2.07,1.11,4.27,1.99,6.53,2.68c4.52,1.37,9.25,1.98,13.98,2.17
		c2.37,0.1,4.74,0.09,7.11,0C128.06,161.5,130.43,161.33,132.79,161.1z"/>
	<path class="st3" d="M124.29,107.83c1.75,1.91,3.53,3.79,5.45,5.51c1.92,1.72,4,3.24,6.25,4.46c2.24,1.24,4.64,2.19,7.08,3.01
		c2.45,0.81,4.94,1.5,7.44,2.17c-2.55-0.44-5.09-0.97-7.59-1.71c-2.49-0.73-4.94-1.67-7.24-2.93c-0.58-0.3-1.12-0.67-1.68-1
		c-0.28-0.16-0.54-0.36-0.81-0.55l-0.8-0.56c-0.51-0.4-1.03-0.81-1.53-1.22c-0.49-0.44-0.98-0.86-1.45-1.31
		C127.53,111.89,125.85,109.9,124.29,107.83z"/>
	<path class="st3" d="M129.38,96.6c2.84,1.49,5.56,3.26,8,5.39c0.59,0.55,1.21,1.08,1.78,1.65l1.67,1.76l1.55,1.86l1.45,1.94
		l1.35,2.01c0.43,0.68,0.86,1.36,1.28,2.05l2.45,4.15c1.64,2.75,3.34,5.48,5.51,7.85c-2.35-2.2-4.22-4.88-5.93-7.6
		c-1.72-2.72-3.32-5.5-5.17-8.1c-1.83-2.62-3.91-5.06-6.26-7.22C134.7,100.18,132.11,98.3,129.38,96.6z"/>
	<path class="st3" d="M120.25,95.86c1.62,3.27,3.87,6.18,6.62,8.54c2.74,2.36,5.86,4.25,8.99,6.1c3.13,1.86,6.29,3.7,9.31,5.74
		c1.52,1.02,3,2.08,4.46,3.18c1.44,1.12,2.86,2.26,4.23,3.47c-2.9-2.21-5.89-4.29-8.95-6.24c-3.07-1.95-6.22-3.76-9.37-5.61
		c-3.13-1.87-6.26-3.8-8.99-6.28c-1.36-1.23-2.59-2.61-3.65-4.11C121.84,99.16,120.95,97.55,120.25,95.86z"/>
	<path class="st2" d="M140.34,98.94c-2.18-1.07-4.41-2.02-6.69-2.86c-2.28-0.84-4.57-1.61-6.88-2.37c-2.3-0.76-4.63-1.5-6.88-2.44
		c-1.13-0.47-2.24-0.99-3.31-1.6c-1.07-0.6-2.09-1.33-2.98-2.2l0.5-0.23c0.16,1.61,0.49,3.24,0.86,4.83
		c0.38,1.6,0.83,3.18,1.35,4.74c1.04,3.12,2.39,6.14,4,9c0.79,1.44,1.68,2.83,2.61,4.19c0.93,1.36,1.95,2.65,3.01,3.91
		c2.14,2.51,4.54,4.8,7.12,6.86l-0.99-0.75c-0.33-0.25-0.67-0.49-0.98-0.76c-0.64-0.53-1.28-1.05-1.89-1.62
		c-1.24-1.1-2.4-2.29-3.52-3.51c-1.09-1.25-2.14-2.53-3.12-3.88c-0.96-1.35-1.89-2.73-2.71-4.18c-1.65-2.89-3.03-5.93-4.11-9.07
		c-1.08-3.15-1.89-6.38-2.24-9.72l-0.08-0.8l0.58,0.57c0.84,0.83,1.81,1.53,2.85,2.13c1.04,0.6,2.13,1.11,3.24,1.59
		c2.23,0.93,4.52,1.73,6.81,2.53c2.29,0.81,4.59,1.6,6.84,2.53C136,96.76,138.21,97.77,140.34,98.94z"/>
	<path class="st3" d="M161.21,90.63c-1.41-2.45-2.53-5.07-3.35-7.79c-0.8-2.72-1.28-5.53-1.51-8.36c-0.24-2.83-0.19-5.68,0.01-8.5
		c0.2-2.83,0.57-5.64,1.03-8.44l0.15-0.91l0.43,0.82c0.49,0.94,1.3,1.67,2.24,2.23c0.94,0.56,1.96,1.01,2.99,1.47
		c1.02,0.46,2.05,0.95,3.04,1.51c0.99,0.56,1.94,1.2,2.82,1.91c1.77,1.43,3.26,3.19,4.48,5.1c1.22,1.91,2.19,3.97,2.98,6.08
		c1.58,4.23,2.53,8.66,3.22,13.1c0.66,4.45,1.04,8.93,1.24,13.41c-0.34-4.48-0.78-8.95-1.54-13.37c-0.74-4.42-1.75-8.81-3.37-12.97
		c-0.81-2.08-1.78-4.09-2.99-5.96c-1.2-1.87-2.66-3.57-4.39-4.95c-0.86-0.69-1.79-1.31-2.75-1.85c-0.97-0.54-1.97-1.01-3-1.47
		c-1.02-0.46-2.06-0.9-3.06-1.49c-0.99-0.58-1.92-1.4-2.47-2.46l0.58-0.09c-0.48,2.78-0.87,5.57-1.08,8.37
		c-0.22,2.8-0.26,5.62-0.1,8.43c0.17,2.81,0.6,5.6,1.33,8.31C158.87,85.49,159.92,88.12,161.21,90.63z"/>
	<path class="st3" d="M176.57,103.19c-1.68-2.12-3.41-4.2-5.24-6.18c-1.83-1.98-3.79-3.84-5.66-5.81l-0.69-0.75
		c-0.23-0.25-0.44-0.52-0.67-0.78c-0.45-0.51-0.85-1.07-1.26-1.62c-0.21-0.27-0.38-0.57-0.56-0.86c-0.18-0.29-0.37-0.58-0.53-0.88
		l-0.46-0.92l-0.23-0.46c-0.07-0.15-0.13-0.32-0.19-0.48c-1.05-2.54-1.55-5.24-1.82-7.93c0.52,2.66,1.17,5.29,2.27,7.73
		c1.07,2.46,2.76,4.56,4.61,6.51c0.92,0.98,1.88,1.94,2.82,2.91l1.4,1.48l1.36,1.52C173.48,98.73,175.09,100.92,176.57,103.19z"/>
	<path class="st3" d="M163.98,66.45c2.89,1.91,5.48,4.33,7.47,7.21c2.01,2.86,3.47,6.09,4.44,9.44c0.96,3.36,1.44,6.84,1.54,10.32
		c0.1,3.48-0.17,6.96-0.78,10.37c0.37-3.44,0.48-6.91,0.3-10.35c-0.2-3.44-0.7-6.87-1.65-10.17c-0.94-3.3-2.34-6.47-4.24-9.34
		c-0.95-1.43-2.02-2.79-3.21-4.03C166.65,68.65,165.35,67.51,163.98,66.45z"/>
	<path class="st3" d="M160.14,65.2c0.46,3.29,1.47,6.47,2.88,9.45c1.4,2.99,3.15,5.8,4.93,8.6c1.77,2.81,3.55,5.62,5.06,8.6
		c0.76,1.49,1.44,3.01,2.03,4.57c0.58,1.56,1.09,3.15,1.47,4.77c-1-3.17-2.35-6.2-3.93-9.11c-1.58-2.91-3.38-5.69-5.15-8.49
		c-1.76-2.81-3.51-5.67-4.84-8.73c-0.67-1.53-1.23-3.11-1.65-4.73C160.53,68.5,160.25,66.86,160.14,65.2z"/>
	<path class="st4" d="M127.47,140.55c-3.14-1.02-6.14-2.51-8.79-4.51c-2.64-2.01-4.93-4.45-7-7.03c-2.07-2.58-3.99-5.27-6-7.87
		c-2.01-2.6-4.08-5.16-6.32-7.57l-0.39-0.42l0.57-0.06c2.07-0.21,4.16-0.32,6.24-0.33c2.09,0,4.17,0.12,6.24,0.36
		c2.07,0.24,4.13,0.59,6.15,1.1c2.02,0.5,4.01,1.12,5.94,1.89c-1.97-0.66-3.97-1.23-6-1.65c-2.03-0.42-4.08-0.74-6.14-0.93
		c-2.06-0.19-4.13-0.26-6.2-0.23c-2.07,0.02-4.13,0.15-6.19,0.37l0.18-0.48c2.26,2.41,4.4,4.95,6.38,7.59c2,2.63,3.9,5.33,5.94,7.91
		c2.03,2.58,4.21,5.05,6.79,7.09c0.67,0.48,1.32,0.97,1.99,1.44l1.05,0.65l0.52,0.32c0.17,0.11,0.35,0.22,0.53,0.31
		c0.73,0.37,1.46,0.76,2.2,1.11L127.47,140.55z"/>
	<path class="st4" d="M155.35,81.34c-1.13-1.14-2.51-1.99-3.93-2.72c-1.43-0.72-2.92-1.31-4.42-1.85c-3.01-1.08-6.11-1.93-9.13-3.02
		l0.19-0.12c-0.13,3,0.07,6.01,0.57,8.96c0.48,2.96,1.26,5.87,2.27,8.7c1.01,2.83,2.22,5.58,3.62,8.24c1.4,2.66,2.94,5.25,4.63,7.74
		c-1.74-2.46-3.36-5-4.79-7.65c-1.43-2.65-2.7-5.4-3.72-8.24c-1.02-2.84-1.81-5.76-2.31-8.74c-0.49-2.98-0.68-6.01-0.54-9.03
		l0.01-0.19l0.18,0.06c1.5,0.55,3.03,1.03,4.55,1.53c1.52,0.5,3.05,1.01,4.55,1.57c1.5,0.56,2.99,1.18,4.41,1.93
		C152.88,79.29,154.25,80.18,155.35,81.34z"/>
	<path class="st4" d="M179.68,81.58c0.04-1.38,0.15-2.75,0.36-4.11c0.23-1.36,0.54-2.7,0.94-4.02c0.81-2.64,1.98-5.16,3.33-7.56
		c1.34-2.41,2.9-4.69,4.38-7c0.73-1.16,1.45-2.34,2.03-3.57c0.28-0.62,0.54-1.25,0.71-1.91c0.17-0.65,0.26-1.33,0.23-2l-0.03-0.7
		l0.32,0.63c1.43,2.8,2.74,5.67,3.9,8.59c1.16,2.93,2.15,5.92,2.92,8.97c0.77,3.05,1.32,6.16,1.65,9.29
		c0.32,3.13,0.42,6.28,0.35,9.42c0.05-6.28-0.64-12.58-2.24-18.65c-0.79-3.04-1.78-6.02-2.95-8.93c-1.16-2.92-2.5-5.76-3.91-8.56
		l0.29-0.08c0.03,0.71-0.07,1.41-0.24,2.09c-0.17,0.68-0.45,1.32-0.73,1.96c-0.6,1.25-1.32,2.44-2.06,3.6
		c-1.49,2.32-3.05,4.58-4.42,6.97c-1.37,2.38-2.55,4.87-3.39,7.49c-0.42,1.31-0.75,2.64-1,3.99
		C179.87,78.83,179.74,80.2,179.68,81.58z"/>
	<circle class="st5" cx="199.71" cy="162.88" r="70.41"/>
	<g>
		<g>
			<g>
				<polygon class="st5" points="199.57,85.82 195.57,95.47 199.59,95.46 203.61,95.46 				"/>
			</g>
		</g>
		<g>
			<g>
				<polygon class="st5" points="209.23,86.41 204.05,95.48 208.04,95.98 212.03,96.48 				"/>
			</g>
		</g>
		<g>
			<g>
				<polygon class="st5" points="218.74,88.2 212.46,96.56 216.36,97.55 220.26,98.54 				"/>
			</g>
		</g>
		<g>
			<g>
				<polygon class="st5" points="227.95,91.18 220.68,98.68 224.42,100.15 228.16,101.63 				"/>
			</g>
		</g>
		<g>
			<g>
				<polygon class="st5" points="236.72,95.29 228.56,101.82 232.09,103.75 235.61,105.68 				"/>
			</g>
		</g>
		<g>
			<g>
				<polygon class="st5" points="244.9,100.46 235.99,105.92 239.24,108.27 242.5,110.63 				"/>
			</g>
		</g>
		<g>
			<g>
				<polygon class="st5" points="252.37,106.62 242.84,110.91 245.78,113.66 248.71,116.41 				"/>
			</g>
		</g>
		<g>
			<g>
				<polygon class="st5" points="259.01,113.66 249.02,116.73 251.58,119.82 254.15,122.92 				"/>
			</g>
		</g>
		<g>
			<g>
				<polygon class="st5" points="264.71,121.49 254.41,123.28 256.57,126.67 258.73,130.06 				"/>
			</g>
		</g>
		<g>
			<g>
				<polygon class="st5" points="269.39,129.96 258.95,130.45 260.66,134.08 262.38,137.72 				"/>
			</g>
		</g>
		<g>
			<g>
				<polygon class="st5" points="272.96,138.96 262.54,138.13 263.79,141.95 265.04,145.77 				"/>
			</g>
		</g>
		<g>
			<g>
				<polygon class="st5" points="275.38,148.33 265.15,146.2 265.91,150.15 266.67,154.1 				"/>
			</g>
		</g>
		<g>
			<g>
				<polygon class="st5" points="276.61,157.93 266.73,154.54 266.98,158.55 267.24,162.56 				"/>
			</g>
		</g>
		<g>
			<g>
				<polygon class="st5" points="276.62,167.61 267.24,163.01 267,167.02 266.75,171.03 				"/>
			</g>
		</g>
		<g>
			<g>
				<polygon class="st5" points="275.42,177.22 266.69,171.47 265.94,175.42 265.2,179.37 				"/>
			</g>
		</g>
		<g>
			<g>
				<polygon class="st5" points="273.03,186.6 265.09,179.8 263.85,183.63 262.61,187.45 				"/>
			</g>
		</g>
		<g>
			<g>
				<polygon class="st5" points="269.48,195.6 262.45,187.86 260.74,191.5 259.03,195.14 				"/>
			</g>
		</g>
		<g>
			<g>
				<polygon class="st5" points="264.82,204.09 258.82,195.53 256.67,198.93 254.52,202.33 				"/>
			</g>
		</g>
		<g>
			<g>
				<polygon class="st5" points="259.14,211.93 254.26,202.69 251.7,205.79 249.14,208.89 				"/>
			</g>
		</g>
		<g>
			<g>
				<polygon class="st5" points="252.52,218.99 248.84,209.21 245.91,211.97 242.98,214.72 				"/>
			</g>
		</g>
		<g>
			<g>
				<polygon class="st5" points="245.07,225.17 242.64,215 239.39,217.37 236.14,219.74 				"/>
			</g>
		</g>
		<g>
			<g>
				<polygon class="st5" points="236.9,230.37 235.77,219.98 232.25,221.92 228.73,223.86 				"/>
			</g>
		</g>
		<g>
			<g>
				<polygon class="st5" points="228.15,234.5 228.33,224.05 224.59,225.53 220.85,227.01 				"/>
			</g>
		</g>
		<g>
			<g>
				<polygon class="st5" points="218.95,237.5 220.43,227.15 216.54,228.15 212.65,229.16 				"/>
			</g>
		</g>
		<g>
			<g>
				<polygon class="st5" points="209.44,239.32 212.21,229.24 208.22,229.75 204.23,230.26 				"/>
			</g>
		</g>
		<g>
			<g>
				<polygon class="st5" points="199.78,239.94 203.79,230.29 199.77,230.29 195.75,230.29 				"/>
			</g>
		</g>
		<g>
			<g>
				<polygon class="st5" points="190.12,239.34 195.31,230.27 191.32,229.77 187.33,229.26 				"/>
			</g>
		</g>
		<g>
			<g>
				<polygon class="st5" points="180.61,237.53 186.89,229.18 183,228.19 179.1,227.19 				"/>
			</g>
		</g>
		<g>
			<g>
				<polygon class="st5" points="171.4,234.55 178.68,227.05 174.94,225.58 171.2,224.1 				"/>
			</g>
		</g>
		<g>
			<g>
				<polygon class="st5" points="162.64,230.43 170.8,223.91 167.28,221.98 163.75,220.04 				"/>
			</g>
		</g>
		<g>
			<g>
				<polygon class="st5" points="154.46,225.25 163.38,219.8 160.12,217.44 156.87,215.08 				"/>
			</g>
		</g>
		<g>
			<g>
				<polygon class="st5" points="147,219.09 156.53,214.8 153.6,212.05 150.66,209.3 				"/>
			</g>
		</g>
		<g>
			<g>
				<polygon class="st5" points="140.37,212.03 150.36,208.98 147.79,205.88 145.23,202.78 				"/>
			</g>
		</g>
		<g>
			<g>
				<polygon class="st5" points="134.67,204.21 144.97,202.43 142.81,199.03 140.66,195.64 				"/>
			</g>
		</g>
		<g>
			<g>
				<polygon class="st5" points="130,195.73 140.44,195.25 138.73,191.61 137.01,187.98 				"/>
			</g>
		</g>
		<g>
			<g>
				<polygon class="st5" points="126.43,186.73 136.85,187.57 135.61,183.74 134.36,179.92 				"/>
			</g>
		</g>
		<g>
			<g>
				<polygon class="st5" points="124.02,177.35 134.25,179.49 133.5,175.54 132.74,171.59 				"/>
			</g>
		</g>
		<g>
			<g>
				<polygon class="st5" points="122.8,167.75 132.69,171.15 132.43,167.14 132.18,163.13 				"/>
			</g>
		</g>
		<g>
			<g>
				<polygon class="st5" points="122.8,158.07 132.18,162.69 132.43,158.67 132.68,154.66 				"/>
			</g>
		</g>
		<g>
			<g>
				<polygon class="st5" points="124.01,148.47 132.73,154.22 133.49,150.27 134.24,146.32 				"/>
			</g>
		</g>
		<g>
			<g>
				<polygon class="st5" points="126.41,139.09 134.35,145.89 135.59,142.07 136.83,138.24 				"/>
			</g>
		</g>
		<g>
			<g>
				<polygon class="st5" points="129.97,130.09 136.99,137.83 138.7,134.19 140.41,130.55 				"/>
			</g>
		</g>
		<g>
			<g>
				<polygon class="st5" points="134.63,121.6 140.63,130.17 142.78,126.77 144.93,123.38 				"/>
			</g>
		</g>
		<g>
			<g>
				<polygon class="st5" points="140.32,113.77 145.19,123.02 147.76,119.92 150.32,116.82 				"/>
			</g>
		</g>
		<g>
			<g>
				<polygon class="st5" points="146.95,106.71 150.62,116.5 153.55,113.74 156.48,110.99 				"/>
			</g>
		</g>
		<g>
			<g>
				<polygon class="st5" points="154.4,100.54 156.82,110.71 160.07,108.35 163.33,105.98 				"/>
			</g>
		</g>
		<g>
			<g>
				<polygon class="st5" points="162.58,95.35 163.7,105.74 167.22,103.81 170.75,101.87 				"/>
			</g>
		</g>
		<g>
			<g>
				<polygon class="st5" points="171.33,91.23 171.15,101.68 174.89,100.2 178.62,98.72 				"/>
			</g>
		</g>
		<g>
			<g>
				<polygon class="st5" points="180.54,88.24 179.05,98.58 182.94,97.58 186.83,96.58 				"/>
			</g>
		</g>
		<g>
			<g>
				<polygon class="st5" points="190.05,86.42 187.27,96.5 191.26,95.99 195.25,95.49 				"/>
			</g>
		</g>
		<g>
			<g>
				<polygon class="st5" points="199.71,85.82 195.69,95.46 199.71,95.46 203.73,95.46 				"/>
			</g>
		</g>
	</g>
	<g>
		<path class="st6" d="M165.24,139.79c0.97,0.81,1.46,1.93,1.46,3.35c0,1.42-0.49,2.54-1.46,3.35c-0.97,0.81-2.31,1.21-4,1.21h-3.23
			v3.96h-1.87v-13.08h5.1C162.94,138.57,164.27,138.98,165.24,139.79z M163.9,145.31c0.62-0.5,0.93-1.23,0.93-2.18
			c0-0.95-0.31-1.67-0.93-2.18c-0.62-0.5-1.53-0.76-2.71-0.76h-3.18v5.87h3.18C162.37,146.07,163.27,145.81,163.9,145.31z"/>
		<path class="st6" d="M177.6,148.38h-6.95l-1.44,3.27h-1.93l5.93-13.08h1.85l5.94,13.08h-1.96L177.6,148.38z M176.94,146.89
			l-2.82-6.41l-2.82,6.41H176.94z"/>
		<path class="st6" d="M192.16,151.65l-2.82-4.02c-0.35,0.03-0.62,0.04-0.82,0.04h-3.23v3.98h-1.87v-13.08h5.1
			c1.69,0,3.03,0.41,4,1.21c0.97,0.81,1.46,1.93,1.46,3.35c0,1.01-0.25,1.87-0.75,2.58c-0.5,0.71-1.21,1.23-2.13,1.55l3.1,4.39
			H192.16z M191.17,145.32c0.62-0.51,0.93-1.24,0.93-2.19c0-0.95-0.31-1.67-0.93-2.18c-0.62-0.5-1.53-0.76-2.71-0.76h-3.18v5.89
			h3.18C189.64,146.08,190.54,145.83,191.17,145.32z"/>
		<path class="st6" d="M199.87,140.2h-4.49v-1.63h10.82v1.63h-4.49v11.46h-1.85V140.2z"/>
		<path class="st6" d="M208.71,138.57h1.87v13.08h-1.87V138.57z"/>
		<path class="st6" d="M214.98,138.57h5.51c1.38,0,2.61,0.27,3.68,0.82c1.07,0.55,1.9,1.32,2.5,2.31c0.59,0.99,0.89,2.13,0.89,3.41
			c0,1.28-0.3,2.42-0.89,3.41c-0.59,0.99-1.42,1.76-2.5,2.31c-1.07,0.55-2.3,0.82-3.68,0.82h-5.51V138.57z M220.38,150.03
			c1.06,0,1.99-0.21,2.79-0.62c0.8-0.41,1.42-0.99,1.86-1.73c0.44-0.74,0.65-1.6,0.65-2.57s-0.22-1.83-0.65-2.57
			c-0.44-0.74-1.06-1.32-1.86-1.73c-0.8-0.41-1.74-0.62-2.79-0.62h-3.53v9.83H220.38z"/>
		<path class="st6" d="M233.22,150.93c-1.06-0.58-1.89-1.38-2.5-2.4c-0.6-1.02-0.91-2.16-0.91-3.42c0-1.26,0.3-2.4,0.91-3.42
			c0.6-1.02,1.44-1.82,2.5-2.4c1.06-0.58,2.25-0.87,3.57-0.87c1.31,0,2.49,0.29,3.55,0.87c1.06,0.58,1.89,1.38,2.49,2.39
			c0.6,1.02,0.9,2.16,0.9,3.43s-0.3,2.41-0.9,3.43c-0.6,1.02-1.43,1.81-2.49,2.39c-1.06,0.58-2.24,0.87-3.55,0.87
			C235.47,151.8,234.28,151.51,233.22,150.93z M239.38,149.49c0.77-0.44,1.37-1.04,1.81-1.8c0.44-0.77,0.66-1.62,0.66-2.57
			c0-0.95-0.22-1.8-0.66-2.57c-0.44-0.77-1.05-1.37-1.81-1.8c-0.77-0.44-1.63-0.65-2.59-0.65c-0.96,0-1.83,0.22-2.61,0.65
			c-0.78,0.44-1.39,1.04-1.83,1.8s-0.66,1.62-0.66,2.57c0,0.95,0.22,1.8,0.66,2.57c0.44,0.77,1.05,1.37,1.83,1.8
			c0.78,0.44,1.65,0.65,2.61,0.65C237.75,150.14,238.61,149.92,239.38,149.49z"/>
		<path class="st6" d="M149.05,167.78v1.63h-9.49v-13.08h9.23v1.63h-7.36v4.02h6.56v1.59h-6.56v4.22H149.05z"/>
		<path class="st6" d="M154.33,168.69c-1.05-0.58-1.88-1.38-2.48-2.39c-0.6-1.02-0.9-2.16-0.9-3.43c0-1.27,0.3-2.41,0.9-3.43
			c0.6-1.02,1.43-1.81,2.49-2.39c1.06-0.58,2.24-0.87,3.55-0.87c1.02,0,1.96,0.17,2.8,0.51c0.85,0.34,1.57,0.85,2.17,1.52
			l-1.22,1.18c-0.98-1.03-2.21-1.55-3.68-1.55c-0.97,0-1.85,0.22-2.64,0.65c-0.78,0.44-1.4,1.04-1.84,1.8
			c-0.44,0.77-0.66,1.62-0.66,2.57c0,0.95,0.22,1.8,0.66,2.57c0.44,0.77,1.06,1.37,1.84,1.8c0.79,0.44,1.66,0.65,2.64,0.65
			c1.46,0,2.69-0.52,3.68-1.57l1.22,1.18c-0.6,0.67-1.32,1.18-2.18,1.53c-0.85,0.35-1.79,0.52-2.81,0.52
			C156.57,169.56,155.39,169.27,154.33,168.69z"/>
		<path class="st6" d="M167.6,168.69c-1.06-0.58-1.89-1.38-2.5-2.4c-0.6-1.02-0.91-2.16-0.91-3.42c0-1.26,0.3-2.4,0.91-3.42
			c0.6-1.02,1.44-1.82,2.5-2.4c1.06-0.58,2.25-0.87,3.57-0.87c1.31,0,2.49,0.29,3.55,0.87c1.06,0.58,1.89,1.38,2.49,2.39
			c0.6,1.02,0.9,2.16,0.9,3.43c0,1.27-0.3,2.41-0.9,3.43c-0.6,1.02-1.43,1.81-2.49,2.39c-1.06,0.58-2.24,0.87-3.55,0.87
			C169.84,169.56,168.65,169.27,167.6,168.69z M173.75,167.24c0.77-0.44,1.37-1.04,1.81-1.8c0.44-0.77,0.66-1.62,0.66-2.57
			c0-0.95-0.22-1.8-0.66-2.57c-0.44-0.77-1.05-1.37-1.81-1.8c-0.77-0.44-1.63-0.65-2.59-0.65c-0.96,0-1.83,0.22-2.61,0.65
			c-0.78,0.44-1.39,1.04-1.83,1.8c-0.44,0.77-0.66,1.62-0.66,2.57c0,0.95,0.22,1.8,0.66,2.57c0.44,0.77,1.05,1.37,1.83,1.8
			c0.78,0.44,1.65,0.65,2.61,0.65C172.13,167.9,172.99,167.68,173.75,167.24z"/>
		<path class="st6" d="M180.96,156.33h1.87v11.46h7.08v1.63h-8.95V156.33z"/>
		<path class="st6" d="M194.16,168.69c-1.06-0.58-1.89-1.38-2.5-2.4c-0.6-1.02-0.91-2.16-0.91-3.42c0-1.26,0.3-2.4,0.91-3.42
			c0.6-1.02,1.44-1.82,2.5-2.4c1.06-0.58,2.25-0.87,3.57-0.87c1.31,0,2.49,0.29,3.55,0.87c1.06,0.58,1.89,1.38,2.49,2.39
			c0.6,1.02,0.9,2.16,0.9,3.43c0,1.27-0.3,2.41-0.9,3.43c-0.6,1.02-1.43,1.81-2.49,2.39c-1.06,0.58-2.24,0.87-3.55,0.87
			C196.4,169.56,195.21,169.27,194.16,168.69z M200.31,167.24c0.77-0.44,1.37-1.04,1.81-1.8c0.44-0.77,0.66-1.62,0.66-2.57
			c0-0.95-0.22-1.8-0.66-2.57c-0.44-0.77-1.05-1.37-1.81-1.8c-0.77-0.44-1.63-0.65-2.59-0.65c-0.96,0-1.83,0.22-2.61,0.65
			c-0.78,0.44-1.39,1.04-1.83,1.8c-0.44,0.77-0.66,1.62-0.66,2.57c0,0.95,0.22,1.8,0.66,2.57c0.44,0.77,1.05,1.37,1.83,1.8
			c0.78,0.44,1.65,0.65,2.61,0.65C198.68,167.9,199.55,167.68,200.31,167.24z"/>
		<path class="st6" d="M216.58,162.79h1.79v5.1c-0.65,0.54-1.4,0.95-2.26,1.23c-0.86,0.29-1.76,0.43-2.69,0.43
			c-1.32,0-2.51-0.29-3.57-0.87c-1.06-0.58-1.89-1.38-2.5-2.39s-0.91-2.16-0.91-3.43c0-1.27,0.3-2.42,0.91-3.44
			c0.6-1.02,1.44-1.82,2.5-2.39c1.07-0.57,2.26-0.86,3.6-0.86c1.05,0,2,0.17,2.85,0.51c0.85,0.34,1.58,0.84,2.18,1.5l-1.16,1.16
			c-1.05-1.01-2.31-1.51-3.79-1.51c-1,0-1.89,0.21-2.68,0.64c-0.79,0.43-1.41,1.03-1.86,1.79c-0.45,0.77-0.67,1.63-0.67,2.59
			c0,0.95,0.22,1.8,0.67,2.57c0.45,0.77,1.07,1.37,1.86,1.8c0.79,0.44,1.68,0.65,2.66,0.65c1.17,0,2.19-0.28,3.07-0.84V162.79z"/>
		<path class="st6" d="M221.95,156.33h1.87v13.08h-1.87V156.33z"/>
		<path class="st6" d="M228.7,169.1c-0.92-0.31-1.64-0.7-2.16-1.19l0.69-1.46c0.5,0.45,1.14,0.81,1.92,1.09
			c0.78,0.28,1.58,0.42,2.4,0.42c1.08,0,1.89-0.18,2.43-0.55c0.54-0.37,0.8-0.86,0.8-1.47c0-0.45-0.15-0.81-0.44-1.09
			c-0.29-0.28-0.65-0.5-1.08-0.64c-0.43-0.15-1.04-0.32-1.82-0.5c-0.98-0.24-1.78-0.47-2.38-0.71c-0.6-0.24-1.12-0.6-1.55-1.09
			c-0.43-0.49-0.64-1.16-0.64-1.99c0-0.7,0.18-1.33,0.55-1.89c0.37-0.56,0.92-1.01,1.67-1.35c0.75-0.34,1.68-0.5,2.78-0.5
			c0.77,0,1.53,0.1,2.28,0.3c0.75,0.2,1.39,0.49,1.93,0.86l-0.62,1.5c-0.55-0.35-1.13-0.61-1.76-0.79
			c-0.62-0.18-1.23-0.27-1.83-0.27c-1.06,0-1.85,0.19-2.38,0.58c-0.53,0.39-0.79,0.88-0.79,1.5c0,0.45,0.15,0.81,0.45,1.09
			c0.3,0.28,0.67,0.5,1.11,0.65c0.44,0.16,1.04,0.32,1.8,0.5c0.98,0.24,1.78,0.47,2.37,0.71c0.6,0.24,1.11,0.6,1.54,1.08
			c0.43,0.49,0.64,1.14,0.64,1.96c0,0.69-0.19,1.31-0.56,1.88c-0.37,0.57-0.94,1.02-1.7,1.35c-0.76,0.33-1.69,0.5-2.8,0.5
			C230.57,169.56,229.62,169.41,228.7,169.1z"/>
		<path class="st6" d="M241.76,157.95h-4.49v-1.63h10.82v1.63h-4.49v11.46h-1.85V157.95z"/>
		<path class="st6" d="M257.82,166.14h-6.95l-1.44,3.27h-1.92l5.92-13.08h1.85l5.94,13.08h-1.96L257.82,166.14z M257.16,164.64
			l-2.82-6.41l-2.82,6.41H257.16z"/>
	</g>
	<g>
		<path class="st7" d="M174.09,175.23l-6.73,15.7h-4.37l-6.71-15.7h4.8l4.26,10.23l4.35-10.23H174.09z"/>
		<path class="st7" d="M187.62,187.5v3.43h-12.6v-15.7h12.31v3.43h-7.92v2.65h6.98v3.32h-6.98v2.87H187.62z"/>
		<path class="st7" d="M196.95,186.76h-2.42v4.17h-4.44v-15.7h7.18c1.42,0,2.65,0.24,3.7,0.71c1.05,0.47,1.85,1.14,2.42,2.02
			c0.57,0.87,0.85,1.9,0.85,3.08c0,1.14-0.27,2.13-0.8,2.97c-0.53,0.84-1.29,1.51-2.28,1.98l3.39,4.93h-4.75L196.95,186.76z
			 M199.06,179.34c-0.46-0.4-1.15-0.61-2.06-0.61h-2.47v4.6h2.47c0.91,0,1.6-0.2,2.06-0.59c0.46-0.4,0.7-0.96,0.7-1.69
			C199.75,180.31,199.52,179.74,199.06,179.34z"/>
		<path class="st7" d="M206.68,175.23h7.42c1.72,0,3.24,0.32,4.58,0.96c1.33,0.64,2.36,1.56,3.1,2.74c0.73,1.18,1.1,2.56,1.1,4.15
			c0,1.59-0.37,2.97-1.1,4.15c-0.73,1.18-1.76,2.09-3.1,2.74c-1.33,0.64-2.86,0.96-4.58,0.96h-7.42V175.23z M213.93,187.39
			c1.35,0,2.43-0.38,3.24-1.14c0.81-0.76,1.22-1.82,1.22-3.16c0-1.35-0.41-2.4-1.22-3.16c-0.82-0.76-1.9-1.14-3.24-1.14h-2.8v8.61
			H213.93z"/>
		<path class="st7" d="M237.81,187.5v3.43h-12.6v-15.7h12.31v3.43h-7.92v2.65h6.98v3.32h-6.98v2.87H237.81z"/>
	</g>
	<g>
		
			<rect x="222.1" y="154.52" transform="matrix(-1.836970e-16 1 -1 -1.836970e-16 380.0621 -65.7697)" class="st6" width="1.64" height="5.25"/>
		
			<rect x="222.1" y="166.01" transform="matrix(-1.836970e-16 1 -1 -1.836970e-16 391.5535 -54.2783)" class="st6" width="1.64" height="5.25"/>
	</g>
	<g>
		
			<rect x="208.84" y="136.77" transform="matrix(-1.836970e-16 1 -1 -1.836970e-16 349.0489 -70.2673)" class="st6" width="1.64" height="5.25"/>
		
			<rect x="208.84" y="148.26" transform="matrix(-1.836970e-16 1 -1 -1.836970e-16 360.5401 -58.7761)" class="st6" width="1.64" height="5.25"/>
	</g>
</g>
</svg>
