<?xml version="1.0" encoding="utf-8"?>
<!-- Generator: Adobe Illustrator 25.4.1, SVG Export Plug-In . SVG Version: 6.00 Build 0)  -->
<svg version="1.1" id="Capa_1" xmlns="http://www.w3.org/2000/svg" xmlns:xlink="http://www.w3.org/1999/xlink" x="0px" y="0px"
	 viewBox="0 0 40 40" style="enable-background:new 0 0 40 40;" xml:space="preserve">
<style type="text/css">
	.st0{fill:#40449C;}
	.st1{fill:#FFFFFF;}
</style>
<g>
	<ellipse class="st0" cx="20" cy="20" rx="20.24" ry="19.57"/>
	<g>
		<path class="st1" d="M9.51,10.9v16.13H6.37V10.9H9.51z"/>
		<path class="st1" d="M12.31,27.02V10.9h2.87l2.49,6.32c0.48,1.24,1.27,3.33,1.72,4.71h0.05c-0.1-1.7-0.31-4.5-0.31-7.47V10.9h2.75
			v16.13h-2.87l-2.46-6.12c-0.53-1.36-1.27-3.4-1.63-4.86h-0.05c0.07,1.63,0.19,4.12,0.19,7.35v3.64H12.31z"/>
		<path class="st1" d="M24.66,11.14c0.79-0.19,1.94-0.31,3.18-0.31c2.03,0,3.45,0.48,4.47,1.44c1.39,1.24,2.11,3.37,2.11,6.51
			c0,3.25-0.84,5.57-2.25,6.82c-1.08,1.05-2.68,1.55-4.93,1.55c-0.98,0-1.96-0.1-2.58-0.17V11.14z M27.79,24.54
			c0.14,0.05,0.38,0.05,0.55,0.05c1.51,0,2.82-1.48,2.82-5.93c0-3.3-0.86-5.31-2.75-5.31c-0.21,0-0.43,0-0.62,0.07V24.54z"/>
	</g>
</g>
</svg>
