<?xml version="1.0" encoding="utf-8"?>
<!-- Generator: Adobe Illustrator 25.4.1, SVG Export Plug-In . SVG Version: 6.00 Build 0)  -->
<svg version="1.1" id="Capa_1" xmlns="http://www.w3.org/2000/svg" xmlns:xlink="http://www.w3.org/1999/xlink" x="0px" y="0px"
	 viewBox="0 0 103.22 100.67" style="enable-background:new 0 0 103.22 100.67;" xml:space="preserve">
<style type="text/css">
	.st0{fill:#FAC90E;}
	.st1{fill:#F6A51C;}
	.st2{fill:#F6A31D;}
	.st3{fill:#D98819;}
	.st4{fill:#2F4F2C;}
</style>
<g>
	<path class="st0" d="M63.58,0.74c-2.43,1.7,1.88,20.04-6.89,24.88l-5.5-2.98C50.76,8.14,55.47,3.26,63.58,0.74z"/>
	<path class="st1" d="M73.3,4.3c0,0,3.85,15.93-8.5,22.69l-5.23-3.22C60.95,9.43,72.14,9.3,73.3,4.3z"/>
	<path class="st0" d="M85.93,12.56c0,0-14.92,0.83-19.91,15.01l4.68,4.16C83.48,28.03,80.59,15.45,85.93,12.56z"/>
	<path class="st1" d="M93.49,22.7c-5.13,3.61-1.17,9.42-17.34,16.07l-4.28-6.37C78.02,24.01,83.9,22.7,93.49,22.7z"/>
	<path class="st0" d="M99.77,32.12c-7.05,1.01-0.49,9.88-22.14,10.6l-1.4-3.51C81.89,31.88,89.17,30.29,99.77,32.12z"/>
	<path class="st1" d="M102.86,46.18c-7.24,4.46-15.09,6.48-23.93,4.44l-1.46-7.4C93.24,37.48,95.43,45.31,102.86,46.18z"/>
	<path class="st0" d="M103.22,61.99c-1.84-2.32-19.9,3.07-25.25-5.4l2.65-5.67C95.07,49.64,100.22,54.05,103.22,61.99z"/>
	<path class="st1" d="M97.68,72.32c0,0-15.93,3.85-22.69-8.5l3.22-5.23C92.55,59.96,92.68,71.15,97.68,72.32z"/>
	<path class="st0" d="M89.42,84.95c0,0-0.83-14.92-15.01-19.91l-4.16,4.68C73.95,82.49,86.54,79.61,89.42,84.95z"/>
	<path class="st1" d="M79.28,92.51c-3.61-5.13-9.42-1.17-16.07-17.34l6.37-4.28C77.97,77.04,79.28,82.92,79.28,92.51z"/>
	<path class="st0" d="M69.86,98.78c-1.01-7.05-9.88-0.49-10.6-22.14l3.51-1.4C70.11,80.91,71.7,88.19,69.86,98.78z"/>
	<path class="st1" d="M55.81,100.67c-4.46-7.24-6.48-13.89-4.44-22.73l7.4-1.46C64.5,92.26,56.67,93.24,55.81,100.67z"/>
	<path class="st0" d="M39.64,99.93c2.42-1.72-2.22-18.71,6.53-23.6l5.52,2.95C52.19,93.77,47.73,97.36,39.64,99.93z"/>
	<path class="st1" d="M30.2,96.29c0,0-3.85-15.93,8.5-22.69l5.23,3.22C42.56,91.16,31.36,91.3,30.2,96.29z"/>
	<path class="st0" d="M17.03,88.43c0,0,14.92-0.83,19.91-15.01l-4.68-4.16C19.49,72.96,22.37,85.55,17.03,88.43z"/>
	<path class="st1" d="M9.47,78.3c5.13-3.61,1.17-9.42,17.34-16.07l4.28,6.37C24.94,76.99,19.07,78.3,9.47,78.3z"/>
	<path class="st0" d="M3.2,68.88c7.05-1.01,0.49-9.88,22.14-10.6l1.4,3.51C21.07,69.12,13.79,70.71,3.2,68.88z"/>
	<path class="st1" d="M0.1,54.82c7.24-4.46,15.09-6.48,23.93-4.44l1.46,7.4C9.72,63.51,7.53,55.69,0.1,54.82z"/>
	<path class="st0" d="M0,39.52c1.89,2.28,19.56-3.51,25.09,4.85l-2.53,5.72C8.14,51.67,3.16,47.4,0,39.52z"/>
	<path class="st1" d="M5.29,28.68c0,0,15.93-3.85,22.69,8.5l-3.22,5.23C10.42,41.04,10.28,29.84,5.29,28.68z"/>
	<path class="st0" d="M13.55,16.05c0,0,0.83,14.92,15.01,19.91l4.16-4.68C29.02,18.5,16.43,21.39,13.55,16.05z"/>
	<path class="st1" d="M23.68,8.49c3.61,5.13,9.42,1.17,16.07,17.34l-6.37,4.28C24.99,23.96,23.68,18.08,23.68,8.49z"/>
	<path class="st0" d="M33.11,2.21c1.01,7.05,9.88,0.49,10.6,22.14l-3.51,1.4C32.86,20.09,31.27,12.81,33.11,2.21z"/>
	<path class="st1" d="M47.54,0c4.27,7.36,6.32,14.4,4.05,23.18l-7.44,1.27C38.84,8.53,46.48,7.41,47.54,0z"/>
	<path class="st2" d="M55.95,7.81c-0.38,0.66-0.75,1.33-1.07,2.02c-0.31,0.69-0.59,1.4-0.8,2.13c-0.43,1.45-0.6,2.97-0.54,4.49
		c0.05,1.52,0.3,3.02,0.45,4.55c0.08,0.76,0.12,1.53,0.11,2.3c-0.02,0.77-0.08,1.53-0.24,2.28c0.2-1.52,0.11-3.05-0.08-4.56
		l-0.31-2.27c-0.1-0.76-0.17-1.52-0.2-2.29c-0.02-0.77,0-1.54,0.1-2.31c0.1-0.76,0.27-1.52,0.51-2.25c0.24-0.73,0.54-1.44,0.88-2.13
		C55.12,9.1,55.52,8.44,55.95,7.81z"/>
	<path class="st2" d="M60.49,8.99c-0.07,1.43-0.28,2.85-0.68,4.24l-0.15,0.52c-0.06,0.17-0.12,0.34-0.18,0.51l-0.18,0.51l-0.2,0.5
		c-0.07,0.17-0.13,0.33-0.21,0.5l-0.23,0.49c-0.15,0.33-0.31,0.65-0.47,0.97c-0.65,1.28-1.35,2.52-1.95,3.81
		c-0.6,1.29-1.09,2.63-1.45,4.02c0.07-0.35,0.15-0.7,0.23-1.05c0.08-0.35,0.19-0.69,0.29-1.04c0.05-0.17,0.11-0.34,0.17-0.51
		l0.18-0.51c0.06-0.17,0.13-0.33,0.2-0.5l0.2-0.5c0.14-0.33,0.29-0.65,0.44-0.98l0.48-0.96c0.33-0.64,0.66-1.27,0.98-1.9
		c0.65-1.27,1.23-2.57,1.66-3.92C60.04,11.81,60.31,10.41,60.49,8.99z"/>
	<path class="st2" d="M59.12,6.47c-1.1,1.29-1.96,2.77-2.49,4.36c-0.26,0.8-0.47,1.61-0.61,2.44c-0.14,0.83-0.23,1.67-0.3,2.51
		c-0.15,1.68-0.2,3.37-0.32,5.06c-0.06,0.85-0.13,1.69-0.23,2.53c-0.1,0.84-0.21,1.68-0.36,2.52c0.09-0.84,0.18-1.68,0.23-2.53
		c0.07-0.84,0.11-1.69,0.15-2.53l0.11-2.54c0.04-0.85,0.08-1.69,0.15-2.54c0.15-1.69,0.39-3.39,0.98-5c0.29-0.8,0.66-1.57,1.11-2.3
		C58,7.75,58.53,7.08,59.12,6.47z"/>
	<path class="st1" d="M51.52,22.82c-0.09-2.04-0.06-4.09,0.14-6.12c0.22-2.03,0.62-4.06,1.35-5.98C53.74,8.8,54.84,7,56.36,5.59
		c0.75-0.71,1.6-1.3,2.51-1.79c0.91-0.48,1.88-0.85,2.87-1.12l0.24-0.07L61.9,2.85c-0.15,0.45-0.2,0.95-0.23,1.44
		c-0.03,0.5-0.03,1-0.03,1.5c0.01,1,0.04,2,0.06,3.01c0.04,2.01,0.05,4.02-0.14,6.03c-0.19,2-0.54,4.01-1.29,5.89
		c-0.38,0.93-0.87,1.83-1.49,2.62c-0.62,0.8-1.37,1.49-2.22,2.02c0.84-0.56,1.57-1.26,2.17-2.06c0.6-0.8,1.07-1.7,1.42-2.63
		c0.72-1.87,1.05-3.86,1.21-5.85c0.15-2,0.15-4,0.1-6.01c-0.02-1-0.06-2.01-0.07-3.01c0-0.5,0-1.01,0.03-1.51
		c0.03-0.51,0.07-1.02,0.24-1.52l0.16,0.17c-0.98,0.26-1.93,0.62-2.82,1.09c-0.89,0.47-1.73,1.05-2.47,1.74
		c-0.74,0.69-1.39,1.47-1.94,2.32c-0.55,0.85-1,1.76-1.37,2.71c-0.74,1.89-1.17,3.9-1.41,5.92c-0.13,1.01-0.2,2.03-0.24,3.05
		C51.52,20.78,51.51,21.8,51.52,22.82z"/>
	<path class="st2" d="M75.16,18.06c-0.82,0.75-1.63,1.52-2.37,2.34c-0.74,0.82-1.39,1.72-1.92,2.69c-0.53,0.97-0.94,2-1.29,3.05
		c-0.35,1.05-0.64,2.13-0.94,3.2c0.19-1.1,0.42-2.19,0.74-3.26c0.31-1.07,0.72-2.13,1.26-3.11c0.13-0.25,0.29-0.48,0.43-0.72
		c0.07-0.12,0.16-0.23,0.24-0.35l0.24-0.34c0.17-0.22,0.35-0.44,0.53-0.66c0.19-0.21,0.37-0.42,0.56-0.62
		C73.41,19.45,74.27,18.73,75.16,18.06z"/>
	<path class="st2" d="M79.99,20.25c-0.64,1.22-1.4,2.39-2.32,3.44c-0.24,0.25-0.46,0.52-0.71,0.76l-0.76,0.72l-0.8,0.67l-0.84,0.62
		l-0.86,0.58c-0.29,0.18-0.59,0.37-0.88,0.55l-1.78,1.05c-1.18,0.7-2.36,1.43-3.38,2.37c0.95-1.01,2.1-1.81,3.27-2.55
		c1.17-0.74,2.36-1.43,3.49-2.22c1.13-0.79,2.17-1.68,3.1-2.69C78.45,22.54,79.26,21.42,79.99,20.25z"/>
	<path class="st2" d="M80.3,16.32c-1.41,0.7-2.66,1.67-3.67,2.85c-1.01,1.18-1.83,2.52-2.63,3.86c-0.8,1.35-1.59,2.7-2.47,4.01
		c-0.44,0.65-0.89,1.29-1.37,1.92c-0.48,0.62-0.97,1.23-1.49,1.82c0.95-1.25,1.85-2.53,2.68-3.85c0.84-1.32,1.62-2.68,2.41-4.03
		c0.8-1.34,1.64-2.69,2.7-3.87c0.53-0.59,1.12-1.11,1.77-1.57C78.89,17.01,79.58,16.62,80.3,16.32z"/>
	<path class="st1" d="M78.98,24.97c0.46-0.94,0.87-1.9,1.23-2.88c0.36-0.98,0.69-1.97,1.02-2.96c0.33-0.99,0.64-1.99,1.05-2.96
		c0.2-0.48,0.42-0.96,0.69-1.42c0.26-0.46,0.57-0.9,0.95-1.28l0.1,0.22c-0.69,0.07-1.39,0.21-2.08,0.37
		c-0.69,0.16-1.37,0.36-2.04,0.58c-1.34,0.45-2.64,1.03-3.87,1.72c-0.62,0.34-1.22,0.72-1.8,1.12c-0.58,0.4-1.14,0.84-1.68,1.3
		c-1.08,0.92-2.06,1.95-2.95,3.06l0.32-0.43c0.11-0.14,0.21-0.29,0.33-0.42c0.23-0.27,0.45-0.55,0.69-0.81
		c0.47-0.53,0.98-1.03,1.51-1.51c0.54-0.47,1.09-0.92,1.67-1.34c0.58-0.41,1.18-0.81,1.8-1.17c1.24-0.71,2.55-1.3,3.9-1.77
		c1.35-0.46,2.74-0.81,4.18-0.96l0.35-0.04l-0.25,0.25c-0.36,0.36-0.66,0.78-0.92,1.23c-0.26,0.45-0.48,0.91-0.68,1.39
		c-0.4,0.96-0.74,1.94-1.09,2.93c-0.35,0.99-0.69,1.97-1.09,2.94C79.92,23.1,79.48,24.05,78.98,24.97z"/>
	<path class="st2" d="M82.55,33.94c1.07-0.62,2.23-1.09,3.42-1.43c1.2-0.33,2.43-0.53,3.67-0.63c1.24-0.1,2.48-0.07,3.72,0.01
		c1.24,0.09,2.47,0.25,3.69,0.45l0.6,0.1l-0.59,0.16c-0.45,0.12-0.86,0.37-1.17,0.72c-0.31,0.35-0.53,0.78-0.73,1.22
		c-0.2,0.44-0.39,0.9-0.6,1.34c-0.21,0.45-0.45,0.88-0.73,1.3c-0.55,0.83-1.27,1.54-2.08,2.11c-0.81,0.58-1.7,1.02-2.62,1.37
		c-0.92,0.35-1.87,0.63-2.83,0.84c-0.96,0.22-1.93,0.39-2.9,0.52c-1.95,0.25-3.91,0.37-5.87,0.41c1.96-0.1,3.91-0.24,5.85-0.54
		c0.97-0.14,1.93-0.32,2.88-0.55c0.95-0.23,1.89-0.51,2.79-0.87c0.9-0.36,1.77-0.81,2.56-1.37c0.79-0.56,1.48-1.26,2.01-2.06
		c0.27-0.4,0.5-0.83,0.7-1.27c0.21-0.44,0.39-0.89,0.59-1.34c0.2-0.45,0.43-0.9,0.77-1.29c0.33-0.39,0.8-0.67,1.29-0.81l0.01,0.26
		c-1.21-0.21-2.44-0.38-3.67-0.47c-1.23-0.1-2.46-0.12-3.69-0.05c-1.23,0.07-2.45,0.24-3.65,0.55
		C84.81,32.93,83.65,33.38,82.55,33.94z"/>
	<path class="st2" d="M77.15,40.55c0.91-0.72,1.81-1.47,2.66-2.25c0.85-0.79,1.65-1.63,2.5-2.44l0.32-0.3
		c0.11-0.1,0.22-0.19,0.33-0.29c0.22-0.2,0.46-0.37,0.7-0.54c0.12-0.09,0.25-0.16,0.37-0.24c0.13-0.08,0.25-0.16,0.38-0.23l0.4-0.2
		l0.2-0.1c0.07-0.03,0.14-0.05,0.2-0.08c1.09-0.45,2.25-0.66,3.41-0.78c-1.14,0.22-2.28,0.5-3.33,0.98
		c-1.06,0.46-1.96,1.19-2.8,1.98c-0.42,0.39-0.83,0.81-1.25,1.21l-0.64,0.6l-0.65,0.58C79.07,39.22,78.13,39.91,77.15,40.55z"/>
	<path class="st2" d="M92.95,35.13c-0.82,1.24-1.86,2.36-3.1,3.21c-1.23,0.87-2.62,1.49-4.06,1.91c-1.44,0.41-2.94,0.62-4.44,0.66
		c-1.5,0.04-2.99-0.07-4.46-0.34c1.48,0.16,2.97,0.21,4.45,0.13c1.48-0.08,2.95-0.3,4.37-0.71c1.42-0.4,2.78-1.01,4.02-1.82
		c0.62-0.41,1.2-0.87,1.73-1.38C92.01,36.28,92.5,35.72,92.95,35.13z"/>
	<path class="st2" d="M93.49,33.48c-1.42,0.2-2.78,0.63-4.06,1.24c-1.28,0.6-2.49,1.36-3.7,2.12c-1.21,0.76-2.42,1.53-3.7,2.18
		c-0.64,0.33-1.29,0.62-1.96,0.87c-0.67,0.25-1.35,0.47-2.05,0.63c1.36-0.43,2.67-1.01,3.92-1.69c1.25-0.68,2.45-1.45,3.65-2.22
		c1.21-0.76,2.44-1.51,3.76-2.08c0.66-0.29,1.34-0.53,2.03-0.71C92.07,33.65,92.78,33.53,93.49,33.48z"/>
	<path class="st3" d="M61.09,19.43c0.44-1.35,1.08-2.64,1.94-3.78c0.86-1.14,1.92-2.12,3.02-3.01c1.11-0.89,2.27-1.71,3.39-2.58
		c1.12-0.87,2.22-1.75,3.25-2.72l0.18-0.17l0.02,0.25c0.09,0.89,0.14,1.79,0.14,2.69c0,0.9-0.05,1.79-0.16,2.68
		c-0.1,0.89-0.25,1.78-0.47,2.64c-0.22,0.87-0.48,1.72-0.81,2.56c0.29-0.85,0.53-1.71,0.71-2.58c0.18-0.87,0.32-1.75,0.4-2.64
		c0.08-0.89,0.11-1.78,0.1-2.66c-0.01-0.89-0.06-1.78-0.16-2.66l0.21,0.08c-1.04,0.97-2.13,1.89-3.26,2.75
		c-1.13,0.86-2.29,1.68-3.4,2.55c-1.11,0.87-2.17,1.81-3.05,2.92c-0.21,0.29-0.42,0.57-0.62,0.86l-0.28,0.45l-0.14,0.23
		c-0.05,0.07-0.09,0.15-0.13,0.23c-0.16,0.32-0.33,0.63-0.48,0.95L61.09,19.43z"/>
	<path class="st3" d="M86.55,31.42c0.49-0.49,0.86-1.08,1.17-1.69c0.31-0.62,0.56-1.26,0.8-1.9c0.47-1.3,0.83-2.63,1.3-3.93
		l0.05,0.08c-1.29-0.06-2.58,0.03-3.85,0.24c-1.27,0.21-2.53,0.54-3.74,0.97c-1.22,0.43-2.4,0.96-3.55,1.56
		c-1.14,0.6-2.26,1.26-3.33,1.99c1.06-0.75,2.15-1.45,3.29-2.06c1.14-0.61,2.32-1.16,3.54-1.6c1.22-0.44,2.48-0.78,3.76-1
		c1.28-0.21,2.58-0.29,3.88-0.23l0.08,0l-0.03,0.08c-0.24,0.65-0.44,1.3-0.66,1.96c-0.22,0.65-0.43,1.31-0.67,1.96
		c-0.24,0.65-0.51,1.29-0.83,1.9C87.43,30.36,87.05,30.95,86.55,31.42z"/>
	<path class="st3" d="M86.35,41.69c0.63,0,1.26,0.04,1.88,0.13c0.62,0.09,1.24,0.23,1.84,0.4c1.21,0.34,2.37,0.85,3.49,1.42
		c1.12,0.57,2.2,1.22,3.29,1.84c0.55,0.31,1.1,0.61,1.67,0.85c0.57,0.24,1.18,0.43,1.79,0.39l0.3-0.02l-0.26,0.14
		c-1.25,0.68-2.54,1.27-3.87,1.77c-1.33,0.5-2.68,0.92-4.06,1.25c-1.38,0.33-2.78,0.57-4.19,0.73c-1.41,0.16-2.83,0.23-4.24,0.23
		c1.42-0.03,2.83-0.12,4.23-0.3c1.4-0.17,2.8-0.43,4.17-0.76c1.37-0.34,2.73-0.76,4.04-1.26c1.32-0.51,2.6-1.1,3.85-1.77l0.04,0.12
		c-0.65,0.04-1.27-0.16-1.85-0.4c-0.58-0.25-1.13-0.55-1.68-0.86c-1.09-0.62-2.16-1.28-3.28-1.86c-1.11-0.58-2.26-1.09-3.47-1.45
		c-0.6-0.18-1.21-0.33-1.83-0.42C87.6,41.76,86.98,41.7,86.35,41.69z"/>
	<path class="st2" d="M95.7,54.8c-0.68-0.34-1.37-0.67-2.08-0.94c-0.71-0.27-1.44-0.5-2.17-0.67c-1.48-0.35-3.01-0.42-4.51-0.27
		c-1.51,0.14-3,0.48-4.51,0.72c-0.76,0.12-1.52,0.21-2.29,0.25c-0.77,0.03-1.54,0.01-2.29-0.1c1.53,0.11,3.05-0.07,4.54-0.35
		l2.25-0.44c0.75-0.14,1.51-0.26,2.28-0.34c0.77-0.07,1.54-0.09,2.31-0.04c0.77,0.05,1.53,0.18,2.28,0.37
		c0.75,0.19,1.47,0.45,2.17,0.75C94.37,54.05,95.05,54.41,95.7,54.8z"/>
	<path class="st2" d="M94.8,59.4c-1.43,0.01-2.87-0.11-4.27-0.42L90,58.86c-0.17-0.05-0.35-0.1-0.52-0.15l-0.52-0.15l-0.51-0.17
		c-0.17-0.06-0.34-0.11-0.51-0.18l-0.5-0.2c-0.34-0.13-0.66-0.27-0.99-0.41c-1.31-0.57-2.59-1.2-3.92-1.72
		c-1.32-0.52-2.69-0.93-4.09-1.21c0.35,0.05,0.71,0.11,1.06,0.16c0.35,0.06,0.7,0.15,1.05,0.22c0.18,0.04,0.35,0.09,0.52,0.14
		l0.52,0.15c0.17,0.05,0.34,0.11,0.51,0.17l0.51,0.17c0.34,0.12,0.67,0.26,1,0.38l0.99,0.42c0.65,0.29,1.3,0.58,1.96,0.87
		c1.3,0.57,2.63,1.08,4.01,1.42C91.95,59.12,93.37,59.31,94.8,59.4z"/>
	<path class="st2" d="M97.23,57.88c-1.35-1.02-2.88-1.79-4.5-2.23c-0.81-0.22-1.64-0.37-2.48-0.46c-0.84-0.09-1.68-0.13-2.52-0.15
		c-1.69-0.05-3.38,0-5.07-0.02c-0.85-0.01-1.69-0.03-2.54-0.07c-0.85-0.05-1.69-0.11-2.53-0.21c0.85,0.04,1.69,0.08,2.54,0.08
		c0.85,0.02,1.69,0.01,2.54,0l2.54-0.04c0.85-0.01,1.69-0.02,2.54,0c1.69,0.05,3.41,0.19,5.05,0.69c0.82,0.25,1.61,0.57,2.36,0.98
		C95.88,56.84,96.59,57.33,97.23,57.88z"/>
	<path class="st1" d="M80.46,51.28c2.03-0.21,4.08-0.31,6.12-0.22c2.04,0.1,4.09,0.38,6.05,0.99c1.96,0.61,3.82,1.6,5.32,3.03
		c0.75,0.71,1.4,1.52,1.94,2.4c0.54,0.88,0.96,1.83,1.29,2.8l0.08,0.24l-0.25-0.07c-0.46-0.13-0.96-0.14-1.46-0.14
		c-0.5,0-1,0.03-1.5,0.06c-1,0.07-2,0.16-3,0.24c-2,0.16-4.01,0.29-6.03,0.22c-2.01-0.07-4.04-0.3-5.95-0.94
		c-0.95-0.32-1.88-0.76-2.71-1.33c-0.83-0.57-1.57-1.28-2.15-2.1c0.61,0.8,1.35,1.49,2.19,2.04c0.84,0.55,1.76,0.96,2.71,1.26
		c1.91,0.61,3.92,0.82,5.92,0.86c2,0.03,4-0.09,6-0.26c1-0.08,2-0.18,3-0.25c0.5-0.03,1.01-0.06,1.51-0.06
		c0.51,0,1.02,0.01,1.53,0.15l-0.16,0.17c-0.32-0.96-0.74-1.89-1.26-2.75c-0.52-0.86-1.15-1.66-1.88-2.36
		c-0.73-0.7-1.55-1.3-2.43-1.8c-0.88-0.5-1.82-0.89-2.78-1.21c-1.93-0.63-3.96-0.93-5.99-1.06c-1.02-0.07-2.04-0.08-3.06-0.06
		C82.5,51.15,81.48,51.2,80.46,51.28z"/>
	<path class="st2" d="M83.92,74.17c-0.75-0.82-1.52-1.63-2.34-2.37c-0.82-0.74-1.72-1.39-2.69-1.92c-0.97-0.53-2-0.94-3.05-1.29
		c-1.05-0.35-2.13-0.64-3.2-0.94c1.1,0.19,2.19,0.42,3.26,0.74c1.07,0.31,2.13,0.72,3.11,1.26c0.25,0.13,0.48,0.29,0.72,0.43
		c0.12,0.07,0.23,0.16,0.35,0.24l0.34,0.24c0.22,0.17,0.44,0.35,0.66,0.53c0.21,0.19,0.42,0.37,0.62,0.56
		C82.53,72.42,83.25,73.28,83.92,74.17z"/>
	<path class="st2" d="M81.73,79c-1.22-0.64-2.39-1.4-3.44-2.32c-0.25-0.24-0.52-0.46-0.76-0.71l-0.72-0.76l-0.67-0.8l-0.62-0.84
		l-0.58-0.86c-0.18-0.29-0.37-0.59-0.55-0.88l-1.05-1.78c-0.7-1.18-1.43-2.36-2.37-3.38c1.01,0.95,1.81,2.1,2.55,3.27
		c0.74,1.17,1.43,2.36,2.22,3.49c0.79,1.13,1.68,2.17,2.69,3.1C79.44,77.46,80.56,78.27,81.73,79z"/>
	<path class="st2" d="M85.66,79.32c-0.7-1.41-1.67-2.66-2.85-3.67c-1.18-1.01-2.52-1.83-3.86-2.63c-1.35-0.8-2.7-1.59-4.01-2.47
		c-0.65-0.44-1.29-0.89-1.92-1.37c-0.62-0.48-1.23-0.97-1.82-1.49c1.25,0.95,2.53,1.85,3.85,2.68c1.32,0.84,2.68,1.62,4.03,2.41
		c1.34,0.8,2.69,1.64,3.87,2.7c0.59,0.53,1.11,1.12,1.57,1.77C84.97,77.9,85.36,78.59,85.66,79.32z"/>
	<path class="st1" d="M77.02,77.99c0.94,0.46,1.9,0.87,2.88,1.23c0.98,0.36,1.97,0.69,2.96,1.02c0.99,0.33,1.99,0.64,2.96,1.05
		c0.49,0.2,0.96,0.42,1.42,0.69c0.46,0.26,0.9,0.57,1.28,0.95l-0.22,0.1c-0.07-0.69-0.21-1.39-0.37-2.08
		c-0.16-0.69-0.36-1.37-0.58-2.04c-0.45-1.34-1.03-2.64-1.72-3.87c-0.34-0.62-0.72-1.22-1.12-1.8c-0.4-0.58-0.84-1.14-1.3-1.68
		c-0.92-1.08-1.95-2.06-3.06-2.95l0.43,0.32c0.14,0.11,0.29,0.21,0.42,0.33c0.27,0.23,0.55,0.45,0.81,0.69
		c0.53,0.47,1.03,0.98,1.51,1.51c0.47,0.54,0.92,1.09,1.34,1.67c0.41,0.58,0.81,1.18,1.17,1.8c0.71,1.24,1.3,2.55,1.77,3.9
		c0.46,1.35,0.81,2.74,0.96,4.18l0.04,0.35l-0.25-0.25c-0.36-0.36-0.78-0.66-1.23-0.92c-0.45-0.26-0.91-0.48-1.39-0.68
		c-0.96-0.4-1.94-0.74-2.93-1.09c-0.99-0.35-1.97-0.69-2.94-1.09C78.88,78.93,77.93,78.5,77.02,77.99z"/>
	<path class="st2" d="M68.04,81.57c0.62,1.07,1.09,2.23,1.43,3.42c0.33,1.2,0.53,2.43,0.63,3.67c0.1,1.24,0.07,2.48-0.01,3.72
		c-0.09,1.24-0.25,2.47-0.45,3.69l-0.1,0.6l-0.16-0.59c-0.12-0.45-0.37-0.86-0.72-1.17c-0.35-0.31-0.78-0.53-1.22-0.73
		c-0.44-0.2-0.9-0.39-1.34-0.6c-0.45-0.21-0.88-0.45-1.3-0.73c-0.83-0.55-1.54-1.27-2.11-2.08c-0.58-0.81-1.02-1.7-1.37-2.62
		c-0.35-0.92-0.63-1.87-0.84-2.83c-0.22-0.96-0.39-1.93-0.52-2.9c-0.25-1.95-0.37-3.91-0.41-5.86c0.1,1.96,0.24,3.91,0.54,5.85
		c0.14,0.97,0.32,1.93,0.55,2.88c0.23,0.95,0.51,1.89,0.87,2.79c0.36,0.9,0.81,1.77,1.37,2.56c0.56,0.79,1.26,1.48,2.06,2.01
		c0.4,0.27,0.83,0.5,1.27,0.7c0.44,0.21,0.89,0.39,1.34,0.59c0.45,0.2,0.9,0.43,1.29,0.77c0.39,0.33,0.67,0.8,0.81,1.29l-0.26,0.01
		c0.21-1.22,0.38-2.44,0.47-3.67c0.1-1.23,0.12-2.46,0.05-3.69c-0.07-1.23-0.24-2.45-0.55-3.65C69.05,83.83,68.61,82.67,68.04,81.57
		z"/>
	<path class="st2" d="M61.43,76.17c0.72,0.91,1.47,1.81,2.25,2.66c0.79,0.85,1.63,1.65,2.44,2.5l0.3,0.32
		c0.1,0.11,0.19,0.22,0.29,0.33c0.2,0.22,0.37,0.46,0.54,0.7c0.09,0.12,0.16,0.25,0.24,0.37c0.08,0.13,0.16,0.25,0.23,0.38l0.2,0.4
		l0.1,0.2c0.03,0.07,0.05,0.14,0.08,0.2c0.45,1.09,0.66,2.25,0.78,3.41c-0.22-1.14-0.5-2.28-0.98-3.33
		c-0.46-1.06-1.19-1.96-1.98-2.8c-0.39-0.42-0.81-0.83-1.21-1.25l-0.6-0.64l-0.58-0.65C62.77,78.09,62.07,77.14,61.43,76.17z"/>
	<path class="st2" d="M66.85,91.97c-1.24-0.82-2.36-1.86-3.21-3.1c-0.87-1.23-1.49-2.62-1.91-4.06c-0.41-1.44-0.62-2.94-0.66-4.44
		c-0.04-1.5,0.07-2.99,0.34-4.46c-0.16,1.48-0.21,2.97-0.13,4.45c0.08,1.48,0.3,2.95,0.71,4.37c0.4,1.42,1.01,2.78,1.82,4.02
		c0.41,0.62,0.87,1.2,1.38,1.73C65.7,91.02,66.26,91.51,66.85,91.97z"/>
	<path class="st2" d="M68.5,92.51c-0.2-1.42-0.63-2.78-1.24-4.06c-0.6-1.28-1.36-2.49-2.12-3.7c-0.76-1.21-1.53-2.42-2.18-3.7
		c-0.33-0.64-0.62-1.29-0.87-1.96c-0.25-0.67-0.47-1.35-0.63-2.05c0.43,1.36,1.01,2.67,1.69,3.92c0.68,1.25,1.45,2.45,2.22,3.65
		c0.76,1.21,1.51,2.44,2.08,3.76c0.29,0.66,0.53,1.34,0.71,2.03C68.33,91.09,68.46,91.79,68.5,92.51z"/>
	<path class="st3" d="M82.55,60.1c1.35,0.44,2.64,1.08,3.78,1.94c1.14,0.86,2.12,1.92,3.01,3.02c0.89,1.11,1.71,2.27,2.58,3.39
		c0.87,1.12,1.75,2.22,2.72,3.25l0.17,0.18l-0.25,0.02c-0.89,0.09-1.79,0.14-2.69,0.14c-0.9,0-1.79-0.05-2.68-0.16
		c-0.89-0.1-1.78-0.25-2.64-0.47c-0.87-0.22-1.72-0.48-2.56-0.81c0.85,0.29,1.71,0.53,2.58,0.71c0.87,0.18,1.75,0.32,2.64,0.4
		c0.89,0.08,1.78,0.11,2.66,0.1c0.89-0.01,1.78-0.06,2.66-0.16l-0.08,0.21c-0.97-1.04-1.89-2.13-2.75-3.26
		c-0.86-1.13-1.68-2.29-2.55-3.4c-0.87-1.11-1.81-2.17-2.92-3.05c-0.29-0.21-0.57-0.42-0.86-0.62l-0.45-0.28l-0.23-0.14
		c-0.07-0.05-0.15-0.09-0.23-0.13c-0.32-0.16-0.63-0.33-0.95-0.48L82.55,60.1z"/>
	<path class="st3" d="M70.56,85.56c0.49,0.49,1.08,0.86,1.69,1.17c0.62,0.31,1.26,0.56,1.9,0.79c1.3,0.47,2.63,0.83,3.93,1.3
		L78,88.88c0.06-1.29-0.03-2.58-0.24-3.85c-0.21-1.27-0.54-2.53-0.97-3.74c-0.43-1.22-0.96-2.4-1.56-3.55
		c-0.6-1.14-1.26-2.26-1.99-3.33c0.75,1.06,1.45,2.15,2.06,3.29c0.61,1.14,1.16,2.32,1.6,3.54c0.44,1.22,0.78,2.48,1,3.76
		c0.21,1.28,0.29,2.58,0.23,3.88l0,0.08l-0.08-0.03c-0.65-0.24-1.3-0.44-1.96-0.66c-0.65-0.22-1.31-0.43-1.96-0.67
		c-0.65-0.24-1.29-0.51-1.9-0.83C71.62,86.45,71.04,86.07,70.56,85.56z"/>
	<path class="st3" d="M60.29,85.36c0,0.59-0.03,1.18-0.11,1.76c-0.08,0.58-0.2,1.16-0.35,1.73c-0.31,1.14-0.78,2.23-1.33,3.27
		c-0.55,1.05-1.19,2.04-1.79,3.04c-0.3,0.5-0.59,1.01-0.83,1.55c-0.11,0.27-0.22,0.54-0.28,0.82c-0.06,0.28-0.09,0.57-0.07,0.86
		l0.02,0.3l-0.14-0.27c-0.64-1.18-1.24-2.39-1.78-3.63c-0.54-1.24-1.01-2.51-1.38-3.8c-0.37-1.3-0.65-2.62-0.83-3.96
		c-0.18-1.34-0.26-2.68-0.26-4.03c0.05,2.69,0.43,5.38,1.2,7.96c0.38,1.29,0.85,2.55,1.39,3.78c0.54,1.23,1.15,2.43,1.78,3.62
		l-0.12,0.04c-0.02-0.3,0.01-0.6,0.08-0.9c0.07-0.29,0.17-0.57,0.29-0.84c0.24-0.54,0.53-1.06,0.84-1.56
		c0.61-1.01,1.25-1.99,1.81-3.03c0.56-1.03,1.03-2.11,1.36-3.24c0.16-0.56,0.29-1.14,0.38-1.72C60.23,86.54,60.28,85.95,60.29,85.36
		z"/>
	<path class="st2" d="M47.01,94.13c0.38-0.67,0.75-1.33,1.05-2.03c0.31-0.69,0.58-1.41,0.79-2.14c0.42-1.46,0.58-2.98,0.51-4.49
		c-0.06-1.52-0.32-3.02-0.48-4.55c-0.08-0.76-0.13-1.53-0.13-2.3c0.01-0.77,0.07-1.53,0.22-2.28c-0.19,1.52-0.09,3.05,0.11,4.55
		l0.32,2.27c0.1,0.76,0.18,1.52,0.22,2.29c0.03,0.77,0.01,1.54-0.08,2.31c-0.1,0.76-0.26,1.52-0.49,2.26
		c-0.23,0.73-0.53,1.45-0.87,2.13C47.83,92.84,47.44,93.5,47.01,94.13z"/>
	<path class="st2" d="M42.47,92.98c0.06-1.43,0.26-2.86,0.65-4.24l0.14-0.52c0.06-0.17,0.12-0.34,0.17-0.51l0.18-0.51l0.2-0.5
		c0.07-0.17,0.13-0.33,0.21-0.5l0.22-0.49c0.15-0.33,0.31-0.65,0.47-0.97c0.64-1.28,1.34-2.53,1.93-3.82
		c0.59-1.3,1.07-2.64,1.43-4.02c-0.07,0.35-0.14,0.7-0.22,1.05c-0.08,0.35-0.19,0.69-0.28,1.04c-0.04,0.17-0.11,0.34-0.16,0.51
		l-0.17,0.51c-0.05,0.17-0.13,0.34-0.19,0.5l-0.2,0.5c-0.14,0.33-0.29,0.66-0.44,0.98l-0.47,0.97c-0.32,0.64-0.65,1.27-0.97,1.91
		c-0.64,1.27-1.22,2.57-1.63,3.93C42.9,90.16,42.63,91.56,42.47,92.98z"/>
	<path class="st2" d="M43.98,94.7c0.52-0.63,1-1.28,1.41-1.98c0.41-0.7,0.75-1.44,1.01-2.2c0.53-1.53,0.75-3.14,0.86-4.76
		c0.06-0.81,0.09-1.62,0.13-2.43c0.04-0.81,0.07-1.63,0.12-2.44c0.05-0.81,0.11-1.63,0.2-2.44c0.09-0.81,0.2-1.62,0.34-2.42
		c-0.17,1.62-0.27,3.24-0.33,4.86c-0.06,1.62-0.08,3.25-0.19,4.88c-0.06,0.81-0.14,1.63-0.29,2.44c-0.15,0.81-0.35,1.6-0.64,2.37
		c-0.29,0.77-0.65,1.51-1.1,2.19C45.05,93.46,44.54,94.11,43.98,94.7z"/>
	<path class="st1" d="M51.34,79.1c0.1,2,0.09,4.01-0.09,6.01c-0.19,1.99-0.57,3.99-1.28,5.88c-0.7,1.88-1.8,3.65-3.31,5.01
		c-0.75,0.68-1.6,1.25-2.5,1.71c-0.9,0.46-1.85,0.81-2.82,1.08l-0.24,0.07l0.08-0.24c0.15-0.44,0.19-0.93,0.22-1.41
		c0.02-0.49,0.02-0.97,0.02-1.46c-0.02-0.98-0.06-1.96-0.09-2.94c-0.06-1.96-0.1-3.94,0.07-5.9c0.17-1.96,0.51-3.93,1.25-5.76
		c0.38-0.91,0.86-1.78,1.47-2.56c0.61-0.78,1.35-1.45,2.18-1.98c-0.81,0.55-1.53,1.24-2.12,2.02c-0.59,0.78-1.05,1.65-1.4,2.56
		c-0.71,1.82-1.03,3.78-1.17,5.73c-0.14,1.95-0.11,3.92-0.03,5.88c0.04,0.98,0.08,1.96,0.1,2.95c0.01,0.49,0.01,0.99-0.01,1.48
		c-0.03,0.49-0.06,0.99-0.23,1.49l-0.16-0.17c0.96-0.27,1.89-0.61,2.78-1.05c0.88-0.45,1.72-1,2.45-1.66
		c0.74-0.66,1.39-1.42,1.93-2.25c0.54-0.83,0.99-1.72,1.35-2.65c0.72-1.86,1.12-3.83,1.34-5.82C51.34,83.11,51.38,81.1,51.34,79.1z"
		/>
	<path class="st2" d="M27.81,82.93c0.82-0.75,1.63-1.52,2.37-2.34c0.74-0.82,1.39-1.72,1.92-2.69c0.53-0.96,0.94-2,1.29-3.05
		c0.35-1.05,0.64-2.13,0.94-3.2c-0.19,1.1-0.42,2.19-0.74,3.26c-0.31,1.07-0.72,2.13-1.26,3.11c-0.13,0.25-0.29,0.48-0.43,0.72
		c-0.07,0.12-0.16,0.23-0.24,0.35l-0.24,0.34c-0.17,0.22-0.35,0.44-0.53,0.66c-0.19,0.21-0.37,0.42-0.56,0.62
		C29.56,81.54,28.7,82.26,27.81,82.93z"/>
	<path class="st2" d="M22.98,80.75c0.64-1.22,1.4-2.39,2.32-3.44c0.24-0.25,0.46-0.52,0.71-0.76l0.76-0.72l0.8-0.67l0.84-0.62
		l0.86-0.58c0.29-0.18,0.59-0.37,0.88-0.55l1.78-1.05c1.18-0.7,2.36-1.43,3.38-2.37c-0.95,1.01-2.1,1.81-3.27,2.55
		c-1.17,0.74-2.36,1.43-3.49,2.22c-1.13,0.79-2.17,1.68-3.1,2.69C24.52,78.46,23.71,79.57,22.98,80.75z"/>
	<path class="st2" d="M22.66,84.67c1.41-0.7,2.66-1.67,3.67-2.85c1.01-1.18,1.83-2.52,2.63-3.87c0.8-1.35,1.59-2.7,2.47-4.01
		c0.44-0.65,0.89-1.29,1.37-1.92c0.48-0.62,0.97-1.23,1.49-1.82c-0.95,1.25-1.85,2.53-2.68,3.85c-0.84,1.32-1.62,2.68-2.41,4.03
		c-0.8,1.34-1.64,2.69-2.7,3.87c-0.53,0.59-1.12,1.11-1.77,1.57C24.08,83.99,23.39,84.37,22.66,84.67z"/>
	<path class="st1" d="M23.99,76.03c-0.46,0.94-0.87,1.9-1.23,2.88c-0.36,0.98-0.69,1.97-1.02,2.96c-0.33,0.99-0.64,1.99-1.05,2.96
		c-0.2,0.48-0.42,0.96-0.69,1.42c-0.26,0.46-0.57,0.9-0.95,1.28l-0.1-0.22c0.69-0.07,1.39-0.21,2.08-0.37
		c0.69-0.16,1.37-0.36,2.04-0.58c1.34-0.45,2.64-1.03,3.87-1.72c0.62-0.34,1.22-0.72,1.8-1.12c0.58-0.4,1.14-0.84,1.68-1.3
		c1.08-0.92,2.06-1.95,2.95-3.06l-0.32,0.43c-0.11,0.14-0.21,0.29-0.33,0.42c-0.23,0.27-0.45,0.55-0.69,0.81
		c-0.47,0.53-0.98,1.03-1.51,1.51c-0.54,0.47-1.09,0.92-1.67,1.34c-0.58,0.41-1.18,0.81-1.8,1.17c-1.24,0.71-2.55,1.3-3.9,1.77
		c-1.35,0.46-2.74,0.81-4.18,0.96l-0.35,0.04l0.25-0.25c0.36-0.36,0.66-0.78,0.92-1.23c0.26-0.45,0.48-0.91,0.68-1.39
		c0.4-0.96,0.74-1.94,1.09-2.93c0.35-0.99,0.69-1.97,1.09-2.94C23.05,77.9,23.48,76.95,23.99,76.03z"/>
	<path class="st2" d="M20.41,67.06c-1.07,0.62-2.23,1.09-3.42,1.43c-1.2,0.33-2.43,0.53-3.67,0.63c-1.24,0.1-2.48,0.07-3.72-0.01
		c-1.24-0.09-2.47-0.25-3.69-0.45l-0.6-0.1l0.59-0.16c0.45-0.12,0.86-0.37,1.17-0.72c0.31-0.35,0.53-0.78,0.73-1.22
		C8,66,8.19,65.55,8.4,65.1c0.21-0.45,0.45-0.88,0.73-1.3c0.55-0.83,1.27-1.54,2.08-2.11c0.81-0.58,1.7-1.02,2.62-1.37
		c0.92-0.35,1.87-0.63,2.83-0.84c0.96-0.22,1.93-0.39,2.9-0.52c1.95-0.25,3.91-0.37,5.86-0.41c-1.96,0.1-3.91,0.24-5.85,0.54
		c-0.97,0.14-1.93,0.32-2.88,0.55c-0.95,0.23-1.89,0.51-2.79,0.87c-0.9,0.36-1.77,0.81-2.56,1.37c-0.79,0.56-1.48,1.26-2.01,2.06
		c-0.27,0.4-0.5,0.83-0.7,1.27c-0.21,0.44-0.39,0.89-0.59,1.34c-0.2,0.45-0.43,0.9-0.77,1.29c-0.33,0.39-0.8,0.67-1.29,0.81
		l-0.01-0.26c1.22,0.21,2.44,0.38,3.67,0.47c1.23,0.1,2.46,0.12,3.69,0.05c1.23-0.07,2.45-0.24,3.65-0.55
		C18.15,68.07,19.31,67.62,20.41,67.06z"/>
	<path class="st2" d="M25.81,60.45c-0.91,0.72-1.81,1.47-2.66,2.25c-0.85,0.79-1.65,1.63-2.5,2.44l-0.32,0.3
		c-0.11,0.1-0.22,0.19-0.33,0.29c-0.22,0.2-0.46,0.37-0.7,0.54c-0.12,0.09-0.25,0.16-0.37,0.24c-0.13,0.08-0.25,0.16-0.38,0.23
		l-0.4,0.2l-0.2,0.1c-0.07,0.03-0.14,0.05-0.2,0.08c-1.09,0.45-2.25,0.66-3.41,0.78c1.14-0.22,2.28-0.5,3.33-0.98
		c1.06-0.46,1.96-1.19,2.8-1.98c0.42-0.39,0.83-0.81,1.25-1.21l0.64-0.6l0.65-0.58C23.9,61.78,24.84,61.09,25.81,60.45z"/>
	<path class="st2" d="M10.01,65.87c0.82-1.24,1.86-2.36,3.1-3.21c1.23-0.87,2.62-1.49,4.06-1.91c1.44-0.41,2.94-0.62,4.44-0.66
		c1.5-0.04,2.99,0.07,4.46,0.34c-1.48-0.16-2.97-0.21-4.45-0.13c-1.48,0.08-2.95,0.3-4.37,0.71c-1.42,0.4-2.78,1.01-4.02,1.82
		c-0.62,0.41-1.2,0.87-1.73,1.38C10.96,64.71,10.47,65.28,10.01,65.87z"/>
	<path class="st2" d="M9.47,67.51c1.42-0.2,2.78-0.63,4.06-1.24c1.28-0.6,2.49-1.36,3.7-2.12c1.21-0.76,2.42-1.53,3.7-2.18
		c0.64-0.33,1.29-0.62,1.96-0.87c0.67-0.25,1.35-0.47,2.05-0.63c-1.36,0.43-2.67,1.01-3.92,1.69c-1.25,0.68-2.45,1.45-3.65,2.22
		c-1.21,0.76-2.44,1.51-3.76,2.08c-0.66,0.29-1.34,0.53-2.03,0.71C10.9,67.35,10.19,67.47,9.47,67.51z"/>
	<path class="st3" d="M42.42,81.16c-0.44,1.35-1.08,2.64-1.94,3.78c-0.86,1.14-1.92,2.12-3.02,3.01c-1.11,0.89-2.27,1.71-3.39,2.58
		c-1.12,0.87-2.22,1.75-3.25,2.72l-0.18,0.17l-0.02-0.25c-0.09-0.89-0.14-1.79-0.14-2.69c0-0.9,0.05-1.79,0.16-2.68
		c0.1-0.89,0.25-1.78,0.47-2.64c0.22-0.87,0.48-1.72,0.81-2.56c-0.29,0.85-0.53,1.71-0.71,2.58c-0.18,0.87-0.32,1.75-0.4,2.64
		c-0.08,0.89-0.11,1.78-0.1,2.66c0.01,0.89,0.06,1.78,0.16,2.66l-0.21-0.08c1.04-0.97,2.13-1.89,3.26-2.75
		c1.13-0.86,2.29-1.68,3.4-2.55c1.11-0.87,2.17-1.81,3.05-2.92c0.21-0.29,0.42-0.57,0.62-0.86l0.28-0.45l0.14-0.23
		c0.05-0.07,0.09-0.15,0.13-0.23c0.16-0.32,0.33-0.63,0.48-0.95L42.42,81.16z"/>
	<path class="st3" d="M16.42,69.57c-0.49,0.49-0.86,1.08-1.17,1.69c-0.31,0.62-0.56,1.26-0.8,1.9c-0.47,1.3-0.83,2.63-1.3,3.93
		l-0.05-0.08c1.29,0.06,2.58-0.03,3.85-0.24c1.27-0.21,2.53-0.54,3.74-0.97c1.22-0.43,2.4-0.96,3.55-1.56
		c1.14-0.6,2.26-1.26,3.33-1.99c-1.06,0.75-2.15,1.45-3.29,2.06c-1.14,0.61-2.32,1.16-3.54,1.6c-1.22,0.44-2.48,0.78-3.76,1
		c-1.28,0.21-2.58,0.29-3.88,0.23l-0.08,0l0.03-0.08c0.24-0.65,0.44-1.3,0.66-1.96c0.22-0.65,0.43-1.31,0.67-1.96
		c0.24-0.65,0.51-1.29,0.83-1.9C15.53,70.64,15.92,70.05,16.42,69.57z"/>
	<path class="st3" d="M16.62,59.3c-0.63,0-1.26-0.04-1.88-0.13c-0.62-0.09-1.24-0.23-1.84-0.4c-1.21-0.34-2.37-0.85-3.49-1.42
		c-1.12-0.57-2.2-1.22-3.29-1.84c-0.55-0.31-1.1-0.61-1.67-0.85c-0.57-0.24-1.18-0.43-1.79-0.39l-0.3,0.02l0.26-0.14
		c1.25-0.68,2.54-1.27,3.87-1.77c1.33-0.5,2.68-0.92,4.06-1.25c1.38-0.33,2.78-0.57,4.19-0.73c1.41-0.16,2.83-0.23,4.24-0.23
		c-1.42,0.03-2.83,0.12-4.23,0.3c-1.4,0.17-2.8,0.43-4.17,0.76c-1.37,0.34-2.73,0.76-4.05,1.26c-1.32,0.51-2.6,1.1-3.85,1.77
		l-0.04-0.12c0.65-0.04,1.27,0.16,1.85,0.4c0.58,0.25,1.13,0.55,1.68,0.86c1.09,0.62,2.16,1.28,3.28,1.86
		c1.11,0.58,2.26,1.09,3.47,1.45c0.6,0.18,1.21,0.33,1.83,0.43C15.36,59.24,15.99,59.29,16.62,59.3z"/>
	<path class="st2" d="M7.39,46.53c0.69,0.33,1.38,0.65,2.1,0.9c0.72,0.26,1.45,0.47,2.19,0.63c1.48,0.31,3.01,0.36,4.52,0.17
		c1.51-0.17,2.99-0.54,4.5-0.81c0.75-0.14,1.51-0.24,2.28-0.29c0.77-0.04,1.53-0.04,2.29,0.05c-1.53-0.08-3.05,0.14-4.53,0.45
		l-2.24,0.49c-0.75,0.16-1.5,0.29-2.27,0.38c-0.76,0.09-1.54,0.12-2.31,0.09c-0.77-0.04-1.54-0.14-2.29-0.32
		c-0.75-0.18-1.48-0.42-2.19-0.71C8.74,47.25,8.06,46.91,7.39,46.53z"/>
	<path class="st2" d="M8.2,41.91c1.43-0.04,2.87,0.05,4.28,0.34l0.53,0.11c0.17,0.04,0.35,0.09,0.52,0.14l0.52,0.14l0.51,0.16
		c0.17,0.06,0.34,0.11,0.51,0.17l0.5,0.19c0.34,0.12,0.67,0.26,1,0.39c1.32,0.55,2.62,1.15,3.95,1.64c1.33,0.49,2.71,0.87,4.12,1.12
		c-0.35-0.04-0.71-0.09-1.06-0.14c-0.35-0.06-0.7-0.14-1.06-0.2c-0.18-0.03-0.35-0.08-0.52-0.13l-0.52-0.14
		c-0.17-0.04-0.34-0.1-0.52-0.15l-0.51-0.16c-0.34-0.11-0.67-0.24-1.01-0.36l-1-0.4c-0.66-0.27-1.32-0.56-1.98-0.83
		c-1.32-0.55-2.66-1.02-4.04-1.34C11.05,42.13,9.63,41.97,8.2,41.91z"/>
	<path class="st2" d="M5.8,43.48c1.37,0.99,2.92,1.73,4.55,2.13c0.82,0.2,1.65,0.34,2.48,0.41c0.84,0.08,1.68,0.1,2.52,0.1
		c1.69,0.01,3.38-0.07,5.07-0.09c0.85-0.01,1.69,0,2.54,0.02c0.85,0.03,1.69,0.08,2.54,0.16c-0.85-0.02-1.69-0.04-2.54-0.03
		c-0.85,0-1.69,0.02-2.54,0.05l-2.54,0.09c-0.85,0.03-1.69,0.06-2.54,0.06c-1.69-0.02-3.41-0.12-5.06-0.58
		c-0.82-0.23-1.62-0.54-2.38-0.93C7.17,44.49,6.46,44.02,5.8,43.48z"/>
	<path class="st1" d="M22.7,49.74c-2.02,0.26-4.07,0.39-6.11,0.35c-2.04-0.05-4.09-0.29-6.07-0.87c-1.97-0.57-3.86-1.52-5.38-2.92
		c-0.76-0.69-1.43-1.49-1.98-2.36c-0.55-0.87-1-1.81-1.35-2.77l-0.09-0.24l0.25,0.06c0.46,0.12,0.96,0.12,1.46,0.11
		c0.5-0.01,1-0.05,1.49-0.09c1-0.09,2-0.2,3-0.3c2-0.2,4.01-0.37,6.02-0.35c2.01,0.02,4.04,0.21,5.97,0.82
		c0.96,0.3,1.89,0.72,2.73,1.27c0.84,0.55,1.59,1.25,2.19,2.05c-0.62-0.79-1.38-1.46-2.23-1.99c-0.85-0.53-1.78-0.93-2.73-1.21
		c-1.92-0.57-3.94-0.74-5.93-0.74c-2,0.01-4,0.17-6,0.39c-1,0.1-2,0.22-3,0.31c-0.5,0.04-1,0.08-1.51,0.1
		c-0.51,0.01-1.02,0.01-1.53-0.12l0.16-0.17c0.34,0.95,0.77,1.87,1.31,2.73c0.54,0.85,1.19,1.64,1.93,2.32
		c0.74,0.68,1.58,1.27,2.47,1.74c0.89,0.48,1.84,0.86,2.81,1.15c1.94,0.59,3.98,0.85,6.01,0.93c1.02,0.04,2.04,0.04,3.06,0
		C20.67,49.91,21.69,49.83,22.7,49.74z"/>
	<path class="st2" d="M19.05,26.83c0.75,0.82,1.52,1.63,2.34,2.37c0.82,0.74,1.72,1.39,2.69,1.92c0.97,0.53,2,0.94,3.05,1.29
		c1.05,0.35,2.13,0.64,3.2,0.94c-1.1-0.19-2.19-0.42-3.26-0.74c-1.07-0.31-2.13-0.72-3.11-1.26c-0.25-0.13-0.48-0.29-0.72-0.43
		c-0.12-0.07-0.23-0.16-0.35-0.24l-0.34-0.24c-0.22-0.17-0.44-0.35-0.66-0.53c-0.21-0.19-0.42-0.37-0.62-0.56
		C20.44,28.57,19.72,27.71,19.05,26.83z"/>
	<path class="st2" d="M21.24,21.99c1.22,0.64,2.39,1.4,3.44,2.32c0.25,0.24,0.52,0.46,0.76,0.71l0.72,0.76l0.67,0.8l0.62,0.84
		l0.58,0.86c0.18,0.29,0.37,0.59,0.55,0.88l1.05,1.78c0.7,1.18,1.43,2.36,2.37,3.38c-1.01-0.95-1.81-2.1-2.55-3.27
		c-0.74-1.17-1.43-2.36-2.22-3.49c-0.79-1.13-1.68-2.17-2.69-3.1C23.53,23.54,22.41,22.72,21.24,21.99z"/>
	<path class="st2" d="M17.31,21.68c0.7,1.41,1.67,2.66,2.85,3.67c1.18,1.01,2.52,1.83,3.86,2.63c1.35,0.8,2.7,1.59,4.01,2.47
		c0.65,0.44,1.29,0.89,1.92,1.37c0.62,0.48,1.23,0.97,1.82,1.49c-1.25-0.95-2.53-1.85-3.85-2.68c-1.32-0.84-2.68-1.62-4.03-2.41
		c-1.34-0.8-2.69-1.64-3.87-2.7c-0.59-0.53-1.11-1.12-1.57-1.77C17.99,23.09,17.61,22.4,17.31,21.68z"/>
	<path class="st1" d="M25.95,23c-0.94-0.46-1.9-0.87-2.88-1.23c-0.98-0.36-1.97-0.69-2.96-1.02c-0.99-0.33-1.99-0.64-2.96-1.05
		c-0.49-0.2-0.96-0.42-1.42-0.69c-0.46-0.26-0.9-0.57-1.28-0.95l0.22-0.1c0.07,0.69,0.21,1.39,0.37,2.08
		c0.16,0.69,0.36,1.37,0.58,2.04c0.45,1.34,1.03,2.64,1.72,3.87c0.34,0.62,0.72,1.22,1.12,1.8c0.4,0.58,0.84,1.14,1.3,1.68
		c0.92,1.08,1.95,2.06,3.06,2.95l-0.43-0.32c-0.14-0.11-0.29-0.21-0.42-0.33c-0.27-0.23-0.55-0.45-0.81-0.69
		c-0.53-0.47-1.03-0.98-1.51-1.51c-0.47-0.54-0.92-1.09-1.34-1.67c-0.41-0.58-0.81-1.18-1.17-1.8c-0.71-1.24-1.3-2.55-1.77-3.9
		c-0.46-1.35-0.81-2.74-0.96-4.18l-0.04-0.35l0.25,0.25c0.36,0.36,0.78,0.66,1.23,0.92c0.45,0.26,0.91,0.48,1.39,0.68
		c0.96,0.4,1.94,0.74,2.93,1.09c0.99,0.35,1.97,0.69,2.94,1.09C24.08,22.06,25.04,22.5,25.95,23z"/>
	<path class="st2" d="M34.93,19.43c-0.61-1.05-1.09-2.18-1.44-3.35c-0.34-1.17-0.55-2.38-0.65-3.6c-0.1-1.22-0.08-2.44,0-3.66
		c0.08-1.22,0.24-2.43,0.44-3.63l0.06-0.39l0.19,0.35c0.21,0.4,0.56,0.72,0.96,0.96c0.4,0.24,0.84,0.43,1.28,0.63
		c0.44,0.2,0.88,0.41,1.31,0.65c0.43,0.24,0.83,0.51,1.21,0.82c0.76,0.62,1.4,1.37,1.93,2.19c0.53,0.82,0.94,1.71,1.28,2.62
		c0.68,1.82,1.09,3.72,1.38,5.63c0.28,1.91,0.45,3.84,0.53,5.77c-0.15-1.92-0.34-3.85-0.66-5.75c-0.32-1.9-0.75-3.79-1.45-5.58
		c-0.35-0.89-0.77-1.76-1.28-2.57c-0.52-0.8-1.14-1.54-1.89-2.13c-0.37-0.3-0.77-0.56-1.18-0.79c-0.42-0.23-0.85-0.44-1.29-0.63
		c-0.44-0.2-0.89-0.39-1.31-0.64c-0.43-0.25-0.83-0.6-1.06-1.06l0.25-0.04c-0.21,1.19-0.37,2.39-0.46,3.6
		c-0.09,1.21-0.11,2.42-0.04,3.62c0.07,1.21,0.26,2.41,0.57,3.58C33.92,17.22,34.37,18.35,34.93,19.43z"/>
	<path class="st2" d="M41.53,24.83c-0.72-0.91-1.47-1.81-2.25-2.66c-0.79-0.85-1.63-1.65-2.44-2.5l-0.3-0.32
		c-0.1-0.11-0.19-0.22-0.29-0.33c-0.2-0.22-0.37-0.46-0.54-0.7c-0.09-0.12-0.16-0.25-0.24-0.37c-0.08-0.13-0.16-0.25-0.23-0.38
		l-0.2-0.4l-0.1-0.2c-0.03-0.07-0.05-0.14-0.08-0.2c-0.45-1.09-0.66-2.25-0.78-3.41c0.22,1.14,0.5,2.28,0.98,3.33
		c0.46,1.06,1.19,1.96,1.98,2.8c0.39,0.42,0.81,0.83,1.21,1.25l0.6,0.64l0.58,0.65C40.2,22.91,40.89,23.85,41.53,24.83z"/>
	<path class="st2" d="M36.12,9.03c1.24,0.82,2.36,1.86,3.21,3.1c0.87,1.23,1.49,2.62,1.91,4.06c0.41,1.44,0.62,2.94,0.66,4.44
		c0.04,1.5-0.07,2.99-0.34,4.46c0.16-1.48,0.21-2.97,0.13-4.45c-0.08-1.48-0.3-2.95-0.71-4.37c-0.4-1.42-1.01-2.78-1.82-4.02
		c-0.41-0.62-0.87-1.2-1.38-1.73C37.27,9.97,36.71,9.48,36.12,9.03z"/>
	<path class="st2" d="M34.47,8.49c0.2,1.42,0.63,2.78,1.24,4.06c0.6,1.28,1.36,2.49,2.12,3.7c0.76,1.21,1.53,2.42,2.18,3.7
		c0.33,0.64,0.62,1.29,0.87,1.96c0.25,0.67,0.47,1.35,0.63,2.05c-0.43-1.36-1.01-2.67-1.69-3.92c-0.68-1.25-1.45-2.45-2.22-3.65
		c-0.76-1.21-1.51-2.44-2.08-3.76c-0.29-0.66-0.53-1.34-0.71-2.03C34.63,9.91,34.51,9.2,34.47,8.49z"/>
	<path class="st3" d="M20.42,40.89c-1.35-0.44-2.64-1.08-3.78-1.94c-1.14-0.86-2.12-1.92-3.01-3.02c-0.89-1.11-1.71-2.27-2.58-3.39
		c-0.87-1.12-1.75-2.22-2.72-3.25l-0.17-0.18l0.25-0.02c0.89-0.09,1.79-0.14,2.69-0.14c0.9,0,1.79,0.05,2.68,0.16
		c0.89,0.1,1.78,0.25,2.64,0.47c0.87,0.22,1.72,0.48,2.56,0.81c-0.85-0.29-1.71-0.53-2.58-0.71c-0.87-0.18-1.75-0.32-2.64-0.4
		c-0.89-0.08-1.78-0.11-2.66-0.1c-0.89,0.01-1.78,0.06-2.66,0.16l0.08-0.21c0.97,1.04,1.89,2.13,2.75,3.26
		c0.86,1.13,1.68,2.29,2.55,3.4c0.87,1.11,1.81,2.17,2.92,3.05c0.29,0.21,0.57,0.42,0.86,0.62l0.45,0.28l0.23,0.14
		c0.07,0.05,0.15,0.09,0.23,0.13c0.32,0.16,0.63,0.33,0.95,0.48L20.42,40.89z"/>
	<path class="st3" d="M32.41,15.43c-0.49-0.49-1.08-0.86-1.69-1.17c-0.62-0.31-1.26-0.56-1.9-0.8c-1.3-0.47-2.63-0.83-3.93-1.3
		l0.08-0.05c-0.06,1.29,0.03,2.58,0.24,3.85c0.21,1.27,0.54,2.53,0.97,3.74c0.43,1.22,0.96,2.4,1.56,3.55
		c0.6,1.14,1.26,2.26,1.99,3.33c-0.75-1.06-1.45-2.15-2.06-3.29c-0.61-1.14-1.16-2.32-1.6-3.54c-0.44-1.22-0.78-2.48-1-3.76
		c-0.21-1.28-0.29-2.58-0.23-3.88l0-0.08l0.08,0.03c0.65,0.24,1.3,0.44,1.96,0.66c0.65,0.22,1.31,0.43,1.96,0.67
		c0.65,0.24,1.29,0.51,1.9,0.83C31.34,14.55,31.93,14.93,32.41,15.43z"/>
	<path class="st3" d="M42.87,15.53c0.02-0.59,0.07-1.18,0.16-1.77c0.1-0.58,0.23-1.16,0.4-1.73c0.35-1.14,0.85-2.22,1.43-3.25
		c0.58-1.04,1.25-2.02,1.88-3.01c0.32-0.5,0.62-1,0.87-1.54c0.12-0.27,0.23-0.54,0.3-0.82c0.07-0.28,0.11-0.57,0.1-0.86L48,2.25
		l0.14,0.27c0.62,1.21,1.18,2.44,1.68,3.7c0.5,1.26,0.93,2.55,1.26,3.86c0.33,1.31,0.57,2.65,0.71,4c0.14,1.35,0.18,2.7,0.15,4.05
		c0.02-2.7-0.28-5.41-0.96-8.02C50.63,8.8,50.2,7.52,49.7,6.26c-0.5-1.25-1.07-2.48-1.68-3.68l0.12-0.03
		c0.01,0.3-0.03,0.61-0.11,0.9c-0.08,0.29-0.19,0.57-0.31,0.84c-0.26,0.54-0.57,1.05-0.88,1.55c-0.64,1-1.31,1.97-1.9,3
		c-0.59,1.02-1.1,2.1-1.46,3.22c-0.18,0.56-0.32,1.14-0.43,1.72C42.95,14.35,42.89,14.94,42.87,15.53z"/>
	<circle class="st4" cx="51.48" cy="50.5" r="30.28"/>
	<g>
		<g>
			<g>
				<polygon class="st4" points="51.42,17.36 49.7,21.51 51.43,21.51 53.16,21.5 				"/>
			</g>
		</g>
		<g>
			<g>
				<polygon class="st4" points="55.58,17.61 53.35,21.51 55.07,21.73 56.78,21.94 				"/>
			</g>
		</g>
		<g>
			<g>
				<polygon class="st4" points="59.67,18.38 56.97,21.98 58.64,22.4 60.32,22.83 				"/>
			</g>
		</g>
		<g>
			<g>
				<polygon class="st4" points="63.63,19.66 60.5,22.89 62.11,23.52 63.72,24.16 				"/>
			</g>
		</g>
		<g>
			<g>
				<polygon class="st4" points="67.4,21.43 63.89,24.24 65.41,25.07 66.93,25.9 				"/>
			</g>
		</g>
		<g>
			<g>
				<polygon class="st4" points="70.92,23.65 67.09,26 68.49,27.01 69.89,28.03 				"/>
			</g>
		</g>
		<g>
			<g>
				<polygon class="st4" points="74.13,26.3 70.03,28.15 71.3,29.33 72.56,30.51 				"/>
			</g>
		</g>
		<g>
			<g>
				<polygon class="st4" points="76.99,29.33 72.69,30.65 73.79,31.98 74.9,33.31 				"/>
			</g>
		</g>
		<g>
			<g>
				<polygon class="st4" points="79.44,32.7 75.01,33.47 75.94,34.93 76.87,36.38 				"/>
			</g>
		</g>
		<g>
			<g>
				<polygon class="st4" points="81.45,36.34 76.96,36.55 77.7,38.11 78.44,39.68 				"/>
			</g>
		</g>
		<g>
			<g>
				<polygon class="st4" points="82.99,40.21 78.51,39.86 79.04,41.5 79.58,43.14 				"/>
			</g>
		</g>
		<g>
			<g>
				<polygon class="st4" points="84.03,44.24 79.63,43.33 79.96,45.03 80.28,46.72 				"/>
			</g>
		</g>
		<g>
			<g>
				<polygon class="st4" points="84.56,48.37 80.31,46.91 80.42,48.64 80.53,50.36 				"/>
			</g>
		</g>
		<g>
			<g>
				<polygon class="st4" points="84.56,52.53 80.53,50.55 80.42,52.28 80.32,54.01 				"/>
			</g>
		</g>
		<g>
			<g>
				<polygon class="st4" points="84.05,56.67 80.29,54.19 79.97,55.89 79.65,57.59 				"/>
			</g>
		</g>
		<g>
			<g>
				<polygon class="st4" points="83.02,60.7 79.6,57.78 79.07,59.42 78.54,61.07 				"/>
			</g>
		</g>
		<g>
			<g>
				<polygon class="st4" points="81.49,64.57 78.47,61.25 77.73,62.81 77,64.38 				"/>
			</g>
		</g>
		<g>
			<g>
				<polygon class="st4" points="79.49,68.22 76.91,64.54 75.98,66 75.06,67.47 				"/>
			</g>
		</g>
		<g>
			<g>
				<polygon class="st4" points="77.04,71.59 74.94,67.62 73.84,68.95 72.74,70.29 				"/>
			</g>
		</g>
		<g>
			<g>
				<polygon class="st4" points="74.2,74.63 72.61,70.43 71.35,71.61 70.1,72.8 				"/>
			</g>
		</g>
		<g>
			<g>
				<polygon class="st4" points="70.99,77.29 69.95,72.92 68.55,73.94 67.15,74.95 				"/>
			</g>
		</g>
		<g>
			<g>
				<polygon class="st4" points="67.48,79.52 66.99,75.06 65.48,75.89 63.96,76.72 				"/>
			</g>
		</g>
		<g>
			<g>
				<polygon class="st4" points="63.72,81.3 63.79,76.81 62.18,77.44 60.58,78.08 				"/>
			</g>
		</g>
		<g>
			<g>
				<polygon class="st4" points="59.76,82.59 60.4,78.14 58.72,78.57 57.05,79 				"/>
			</g>
		</g>
		<g>
			<g>
				<polygon class="st4" points="55.67,83.37 56.86,79.04 55.14,79.26 53.43,79.48 				"/>
			</g>
		</g>
		<g>
			<g>
				<polygon class="st4" points="51.51,83.64 53.24,79.49 51.51,79.49 49.78,79.49 				"/>
			</g>
		</g>
		<g>
			<g>
				<polygon class="st4" points="47.36,83.38 49.59,79.48 47.87,79.27 46.16,79.05 				"/>
			</g>
		</g>
		<g>
			<g>
				<polygon class="st4" points="43.27,82.61 45.97,79.02 44.3,78.59 42.62,78.16 				"/>
			</g>
		</g>
		<g>
			<g>
				<polygon class="st4" points="39.31,81.32 42.44,78.1 40.83,77.46 39.22,76.83 				"/>
			</g>
		</g>
		<g>
			<g>
				<polygon class="st4" points="35.54,79.55 39.05,76.75 37.54,75.92 36.02,75.08 				"/>
			</g>
		</g>
		<g>
			<g>
				<polygon class="st4" points="32.02,77.32 35.86,74.98 34.46,73.97 33.06,72.95 				"/>
			</g>
		</g>
		<g>
			<g>
				<polygon class="st4" points="28.81,74.67 32.91,72.83 31.65,71.65 30.39,70.46 				"/>
			</g>
		</g>
		<g>
			<g>
				<polygon class="st4" points="25.96,71.64 30.26,70.33 29.16,68.99 28.05,67.66 				"/>
			</g>
		</g>
		<g>
			<g>
				<polygon class="st4" points="23.51,68.27 27.94,67.51 27.01,66.05 26.09,64.59 				"/>
			</g>
		</g>
		<g>
			<g>
				<polygon class="st4" points="21.5,64.63 25.99,64.42 25.26,62.86 24.52,61.29 				"/>
			</g>
		</g>
		<g>
			<g>
				<polygon class="st4" points="19.97,60.76 24.45,61.12 23.91,59.47 23.38,57.83 				"/>
			</g>
		</g>
		<g>
			<g>
				<polygon class="st4" points="18.93,56.73 23.33,57.64 23.01,55.95 22.68,54.25 				"/>
			</g>
		</g>
		<g>
			<g>
				<polygon class="st4" points="18.41,52.59 22.66,54.06 22.55,52.33 22.44,50.61 				"/>
			</g>
		</g>
		<g>
			<g>
				<polygon class="st4" points="18.41,48.43 22.44,50.42 22.55,48.69 22.65,46.96 				"/>
			</g>
		</g>
		<g>
			<g>
				<polygon class="st4" points="18.93,44.3 22.68,46.78 23,45.08 23.33,43.38 				"/>
			</g>
		</g>
		<g>
			<g>
				<polygon class="st4" points="19.96,40.27 23.37,43.19 23.91,41.55 24.44,39.9 				"/>
			</g>
		</g>
		<g>
			<g>
				<polygon class="st4" points="21.49,36.4 24.51,39.73 25.25,38.16 25.98,36.6 				"/>
			</g>
		</g>
		<g>
			<g>
				<polygon class="st4" points="23.5,32.75 26.07,36.43 27,34.97 27.93,33.51 				"/>
			</g>
		</g>
		<g>
			<g>
				<polygon class="st4" points="25.94,29.38 28.04,33.36 29.14,32.02 30.24,30.69 				"/>
			</g>
		</g>
		<g>
			<g>
				<polygon class="st4" points="28.79,26.34 30.37,30.55 31.63,29.37 32.89,28.18 				"/>
			</g>
		</g>
		<g>
			<g>
				<polygon class="st4" points="32,23.69 33.04,28.06 34.44,27.05 35.84,26.03 				"/>
			</g>
		</g>
		<g>
			<g>
				<polygon class="st4" points="35.51,21.46 36,25.93 37.51,25.09 39.03,24.26 				"/>
			</g>
		</g>
		<g>
			<g>
				<polygon class="st4" points="39.28,19.69 39.2,24.18 40.81,23.54 42.42,22.91 				"/>
			</g>
		</g>
		<g>
			<g>
				<polygon class="st4" points="43.24,18.4 42.6,22.85 44.27,22.42 45.95,21.99 				"/>
			</g>
		</g>
		<g>
			<g>
				<polygon class="st4" points="47.33,17.62 46.13,21.95 47.85,21.73 49.56,21.52 				"/>
			</g>
		</g>
		<g>
			<g>
				<polygon class="st4" points="51.48,17.36 49.75,21.51 51.48,21.51 53.21,21.51 				"/>
			</g>
		</g>
	</g>
</g>
</svg>
